<svg id="Group_194" data-name="Group 194" xmlns="http://www.w3.org/2000/svg" viewBox="0 0 470.403 407.69">
  <defs>
    <style>
      .cls-1 {
        fill: #fff;
      }
    </style>
  </defs>
  <path id="Path_6" data-name="Path 6" class="cls-1" d="M452.035,117.639A60.431,60.431,0,0,0,407.69,99.263H352.81L340.317,65.945q-4.657-12-17.031-20.705t-25.359-8.7H172.483q-12.985,0-25.36,8.7T130.1,65.945L117.6,99.263H62.721a60.434,60.434,0,0,0-44.347,18.375A60.429,60.429,0,0,0,0,161.984V381.508a60.42,60.42,0,0,0,18.374,44.344A60.428,60.428,0,0,0,62.721,444.23H407.684A62.74,62.74,0,0,0,470.4,381.508V161.984A60.424,60.424,0,0,0,452.035,117.639ZM312.746,349.292q-32.218,32.219-77.543,32.221T157.66,349.292q-32.22-32.214-32.218-77.54t32.218-77.545q32.216-32.22,77.543-32.218t77.543,32.218q32.219,32.216,32.219,77.545T312.746,349.292Z" transform="translate(0 -36.54)"/>
  <path id="Path_7" data-name="Path 7" class="cls-1" d="M262.419,228.4q-29.157,0-49.86,20.705t-20.7,49.861q0,29.152,20.7,49.856t49.86,20.7q29.153,0,49.859-20.7t20.7-49.856q0-29.162-20.7-49.861T262.419,228.4Z" transform="translate(-27.216 -63.757)"/>
</svg>
