<svg id="Group_199" data-name="Group 199" xmlns="http://www.w3.org/2000/svg" viewBox="0 0 402.865 402.864">
  <defs>
    <style>
      .cls-1 {
        fill: #89664A;
      }
    </style>
  </defs>
  <path id="ic_phone_24px" class="cls-1" d="M84.021,177.351A339.047,339.047,0,0,0,231.514,324.844L280.753,275.6a22.253,22.253,0,0,1,22.829-5.372,255.3,255.3,0,0,0,79.9,12.757,22.447,22.447,0,0,1,22.381,22.381v78.111a22.447,22.447,0,0,1-22.381,22.381C173.322,405.864,3,235.542,3,25.381A22.447,22.447,0,0,1,25.381,3h78.335A22.447,22.447,0,0,1,126.1,25.381a254.26,254.26,0,0,0,12.757,79.9,22.461,22.461,0,0,1-5.6,22.829Z" transform="translate(-3 -3)"/>
</svg>
