<svg id="Group_121" data-name="Group 121" xmlns="http://www.w3.org/2000/svg" viewBox="0 0 365.864 408.234">
  <defs>
    <style>
      .cls-1 {
        fill: #fff;
      }
    </style>
  </defs>
  <g id="Group_120" data-name="Group 120">
    <g id="Group_119" data-name="Group 119">
      <path id="Path_14" data-name="Path 14" class="cls-1" d="M302.6,215.947A15.946,15.946,0,0,0,286.656,200H122.406a15.947,15.947,0,0,0,0,31.894H286.656A15.947,15.947,0,0,0,302.6,215.947Z" transform="translate(-42.761 -40.534)"/>
      <path id="Path_15" data-name="Path 15" class="cls-1" d="M122.406,280a15.947,15.947,0,0,0,0,31.893h99.755a15.947,15.947,0,0,0,0-31.893Z" transform="translate(-42.761 -56.747)"/>
      <path id="Path_16" data-name="Path 16" class="cls-1" d="M143.689,376.341H90.357a31.93,31.93,0,0,1-31.893-31.893V63.787A31.93,31.93,0,0,1,90.357,31.893H286.412a31.929,31.929,0,0,1,31.893,31.893v98.072a15.947,15.947,0,1,0,31.893,0V63.787A63.859,63.859,0,0,0,286.412,0H90.357A63.859,63.859,0,0,0,26.57,63.787V344.448a63.859,63.859,0,0,0,63.787,63.787h53.333a15.947,15.947,0,1,0,0-31.893Z" transform="translate(-26.57)"/>
      <path id="Path_17" data-name="Path 17" class="cls-1" d="M422.4,286.016A47.89,47.89,0,0,0,354.757,286l-87.549,87.356a15.955,15.955,0,0,0-4,6.654l-19.066,62.77a15.944,15.944,0,0,0,19.515,20l64.364-17.829a15.944,15.944,0,0,0,7.009-4.081l87.366-87.2A47.894,47.894,0,0,0,422.4,286.016ZM315.471,415.34l-32.381,8.97,9.476-31.2,59.073-58.943L374.2,356.725Zm84.388-84.228-3.089,3.083-22.553-22.553,3.079-3.073a15.947,15.947,0,0,1,22.563,22.542Z" transform="translate(-70.526 -55.131)"/>
      <path id="Path_18" data-name="Path 18" class="cls-1" d="M286.656,120H122.406a15.947,15.947,0,1,0,0,31.893H286.656a15.947,15.947,0,1,0,0-31.893Z" transform="translate(-42.761 -24.32)"/>
    </g>
  </g>
</svg>
