<svg xmlns="http://www.w3.org/2000/svg" viewBox="0 0 339.089 407.651">
  <defs>
    <style>
      .cls-1 {
        fill: #FFFFFF;
      }
    </style>
  </defs>
  <path id="Path_107" data-name="Path 107" class="cls-1" d="M1219.877,1697.687q-2.34,24.248-8.623,36.6a40.648,40.648,0,0,1-18.417,18.417,47.7,47.7,0,0,1-13.752,4.431q-7.242,1.159-26.343,2.576-20.524.921-84.387,1.4-63.883.435-92.081-.465-28.218-.944-43.127-2.8c-10.257-1.567-18.111-3.649-23.544-6.3a35.84,35.84,0,0,1-13.752-11.9,71.69,71.69,0,0,1-5.828-13.754,118.938,118.938,0,0,1-4.429-17.02q-3.743-27.967-3.031-75.061.7-47.065,5.359-67.137,4.2-18.181,14.69-27.5t28.437-10.951q17.94-1.624,59.443-2.565t86.253-.471q91.371.954,107.235,4.9,15.837,3.968,24.243,16.768,8.391,12.833,11.189,37.544,1.4,11.668,1.864,48.488Q1222.2,1674.833,1219.877,1697.687ZM982.1,1585.794v-21.457H910.768v21.457h23.779v130.529h22.846V1585.794H982.1Zm-35.9-231.715,11.192-.464q11.186,0,11.888.924.7.954,8.158,28.908,7.45,27.977,7.924,27.977.459,0,6.529-23.312l9.792-34.513h11.654c4.966,0,8.23.094,9.79.248s2.169.544,1.866,1.163l-27.973,89.061v62.459H974.178V1443.6Zm92.778,248.963h-21.446V1689.3l-5.127,5.118c-2.8,2.8-4.9,4.357-6.295,4.658a4.187,4.187,0,0,1-3.962-1.4q-1.4-1.406-1.632-9.56t-.237-38.93v-46.147H978.838V1652q0,29.37.464,39.622,0,12.6,1.4,16.777a13.259,13.259,0,0,0,4.431,6.531c2.013,1.56,5.058,2.411,9.089,2.576s7.228-.386,9.558-1.645a45.274,45.274,0,0,0,8.625-6.524l5.129-4.665v11.656h21.446V1603.041Zm-15.152-112.824c-1.1-2.484-1.795-6.848-2.1-13.056q-.472-6.994-.466-27.274t.466-27.745q.452-9.311,2.1-13.292a36.262,36.262,0,0,1,5.364-8.629,25.231,25.231,0,0,1,13.754-8.145,34.253,34.253,0,0,1,17.25.234,26.669,26.669,0,0,1,13.752,8.391,31.18,31.18,0,0,1,5.129,8.625c.933,2.661,1.549,7.076,1.866,13.3q.452,7.463.464,27.031,0,21.923-.464,28.669a78.25,78.25,0,0,1-1.4,10.957A32.27,32.27,0,0,1,1071.85,1500a30.6,30.6,0,0,1-21.211,8.636,43.947,43.947,0,0,1-9.792-2.112c-4.044-1.221-7.774-3.875-11.189-7.926A34.146,34.146,0,0,1,1023.829,1490.217Zm18.417-40.562q0,20.052.467,27.042.452,7.932,2.1,10.252c1.083,1.56,3.183,2.333,6.292,2.333a13.914,13.914,0,0,0,4.428-.714,4.975,4.975,0,0,0,3.031-3.5c.618-1.866,1.084-5.431,1.4-10.719q.452-6.988.467-24.25,0-31.694-1.4-34.962-1.872-4.657-7.692-4.654c-3.882,0-6.457,1.56-7.692,4.654C1042.712,1417.02,1042.246,1428.557,1042.246,1449.655Zm74.131,175.3q-.944-9.787-4.2-15.837a16.831,16.831,0,0,0-6.06-5.833,15.17,15.17,0,0,0-7.694-2.573,20.469,20.469,0,0,0-8.158,2.109,27.636,27.636,0,0,0-8.393,5.832l-5.594,4.647v-48.955h-20.513v151.993h20.513V1706.08l4.663,4.2a32.7,32.7,0,0,0,8.391,5.826,21.51,21.51,0,0,0,9.558,1.4c3.882-.163,6.913-.857,9.091-2.109q3.271-1.841,6.063-7.462a30.549,30.549,0,0,0,2.333-9.788q.452-5.6.467-33.107C1117.144,1644.889,1116.993,1631.48,1116.377,1624.954Zm-22.612-.232q1.152,3.047,1.632,11.411v26.111l-.467,31.7-3.265,2.792c-1.864,1.56-3.5,2.333-4.9,2.333s-3.5-.772-6.292-2.333l-4.2-2.326v-69.47l5.127-2.8c2.17-.919,3.732-1.553,4.665-1.85a5.581,5.581,0,0,1,3.73.467A6.288,6.288,0,0,1,1093.765,1624.721Zm4.893-136.138q-.469-8.615-.464-44.977l-.467-51.752h21.446v47.553q0,30.773.467,39.4t1.4,9.556q4.195,3.268,11.19-4.2l4.194-4.183v-88.126h21.448V1506.54h-21.448v-11.654l-5.594,4.663c-3.416,3.433-6.295,5.584-8.625,6.531a23.038,23.038,0,0,1-8.623,1.4q-5.126,0-7.928-1.634a14.826,14.826,0,0,1-5.127-5.828C1099.593,1498.139,1098.964,1494.295,1098.658,1488.583Zm95.112,188.122h-22.379v7a33.169,33.169,0,0,1-.933,9.091,9.617,9.617,0,0,1-3.962,5.112,6.987,6.987,0,0,1-6.529.938,10.878,10.878,0,0,1-5.826-4.893,24.293,24.293,0,0,1-1.4-6.065,103.073,103.073,0,0,1-.467-11.658v-13.051h41.031v-16.788q0-15.833-1.866-22.6a31.414,31.414,0,0,0-6.759-12.364,29.827,29.827,0,0,0-10.259-7.926,27.567,27.567,0,0,0-12.821-1.866,33.732,33.732,0,0,0-11.192,1.645,27.993,27.993,0,0,0-9.323,5.826,25.432,25.432,0,0,0-6.759,9.328q-2.1,5.14-3.031,15.366-.472,9.345-.466,29.386.455,18.646.933,25.417c.3,4.5.933,7.69,1.864,9.556a28.847,28.847,0,0,0,14.453,16.313c3.732,2.183,8.393,3.257,13.989,3.257a36.447,36.447,0,0,0,13.986-2.331q8.394-3.73,12.355-10.482t4.429-18.41Zm-41.495-30.77v-8.391c0-7.15,1-11.955,3.031-14.457q3.023-3.72,9.792-2.315c4.5.92,6.759,6.529,6.759,16.772v8.391Z" transform="translate(-882.452 -1353.599)"/>
</svg>
