<svg id="video-camera" xmlns="http://www.w3.org/2000/svg" viewBox="0 0 469.746 408.2">
  <defs>
    <style>
      .cls-1 {
        fill: #fff;
      }
    </style>
  </defs>
  <g id="Group_94" data-name="Group 94">
    <g id="Group_93" data-name="Group 93">
      <path id="Path_10" data-name="Path 10" class="cls-1" d="M362.076,173.782a19.169,19.169,0,0,0-26.536-6.775L271.177,204.27l-16.373,9.6v89.206l15.244,9.033c.565,0,.565.565,1.129.565l63.234,36.7a17.373,17.373,0,0,0,10.727,3.388,19.038,19.038,0,0,0,19.2-19.2V257.906l.565-74.526C364.9,179.992,364.335,176.6,362.076,173.782Z" transform="translate(104.847 36.811)"/>
      <path id="Path_11" data-name="Path 11" class="cls-1" d="M90.9,203.6a90.9,90.9,0,1,0-90.9-90.9C-.559,162.95,40.656,203.6,90.9,203.6Zm0-128.162A37.263,37.263,0,1,1,53.642,112.7C53.077,91.811,70.015,75.438,90.9,75.438Z" transform="translate(0 -21.802)"/>
      <path id="Path_12" data-name="Path 12" class="cls-1" d="M315.331,155.848A108.2,108.2,0,0,1,266.777,167.7a105.572,105.572,0,0,1-58.718-17.5H143.7a105.572,105.572,0,0,1-58.718,17.5,101.3,101.3,0,0,1-48.555-11.856A44.141,44.141,0,0,0,14.4,193.676v137.76a45.9,45.9,0,0,0,45.732,45.732H292.183a45.9,45.9,0,0,0,45.732-45.732V193.676C337.351,177.867,328.317,163.188,315.331,155.848Z" transform="translate(5.927 31.032)"/>
      <path id="Path_13" data-name="Path 13" class="cls-1" d="M219.7,203.6a90.9,90.9,0,1,0-90.9-90.9A90.84,90.84,0,0,0,219.7,203.6Zm0-128.162A37.263,37.263,0,1,1,182.44,112.7,37.227,37.227,0,0,1,219.7,75.438Z" transform="translate(53 -21.802)"/>
    </g>
  </g>
</svg>
