<svg xmlns="http://www.w3.org/2000/svg" viewBox="0 0 478.92 413.177">
  <defs>
    <style>
      .cls-1 {
        fill: #89664A;
      }
    </style>
  </defs>
  <g id="ic_shopping_basket_24px" transform="translate(-7136.547 6434.445)">
    <path id="ic_shopping_basket_24px-2" data-name="ic_shopping_basket_24px" class="cls-1" d="M353.877,153.968,258.528,11.163A21.609,21.609,0,0,0,240.46,2.02a21.275,21.275,0,0,0-18.068,9.361L127.043,153.968H22.769A21.833,21.833,0,0,0,1,175.737a18.335,18.335,0,0,0,.871,5.878l55.293,201.8a43.293,43.293,0,0,0,41.8,31.783h283a43.748,43.748,0,0,0,42.014-31.783l55.294-201.8.653-5.878a21.833,21.833,0,0,0-21.769-21.769Zm-178.724,0L240.46,58.184l65.307,95.784ZM240.46,328.12A43.538,43.538,0,1,1,284,284.582,43.666,43.666,0,0,1,240.46,328.12Z" transform="translate(7135.547 -6436.465)"/>
  </g>
</svg>
