<?xml version="1.0" encoding="UTF-8"?>
<!DOCTYPE svg PUBLIC "-//W3C//DTD SVG 1.1//EN" "http://www.w3.org/Graphics/SVG/1.1/DTD/svg11.dtd">
<!-- Creator: CorelDRAW X7 -->
<svg xmlns="http://www.w3.org/2000/svg" xml:space="preserve" width="165.849mm" height="33.8813mm" version="1.1" style="shape-rendering:geometricPrecision; text-rendering:geometricPrecision; image-rendering:optimizeQuality; fill-rule:evenodd; clip-rule:evenodd"
viewBox="0 0 10134 2070"
 xmlns:xlink="http://www.w3.org/1999/xlink">
 <defs>
  <style type="text/css">
   <![CDATA[
    .str0 {stroke:black;stroke-width:45.8279}
    .fil1 {fill:none}
    .fil2 {fill:black}
    .fil0 {fill:black;fill-rule:nonzero}
   ]]>
  </style>
 </defs>
 <g id="Warstwa_x0020_1">
  <metadata id="CorelCorpID_0Corel-Layer"/>
  <path class="fil0" d="M3341 879l19 0c12,0 21,-2 27,-6 6,-4 9,-10 9,-18l0 -350c0,-9 -3,-15 -9,-19 -6,-4 -15,-6 -27,-6l-19 0 0 -24 240 0c53,0 91,12 114,36 22,24 34,58 34,102 0,43 -12,77 -34,101 -23,25 -61,37 -114,37l-87 0 0 123c0,8 3,14 9,18 5,4 14,6 26,6l20 0 0 24 -208 0 0 -24zm218 -182c49,0 73,-35 73,-103 0,-69 -24,-103 -73,-103l-65 0 0 206 65 0zm547 93c6,19 11,34 16,46 5,12 12,22 21,30 9,8 20,13 33,13l0 24 -72 0c-25,0 -44,-5 -57,-15 -13,-10 -23,-27 -29,-50 -4,-11 -7,-25 -10,-40 -4,-21 -9,-37 -13,-49 -4,-12 -11,-22 -20,-29l-71 0 0 135c0,8 3,14 9,18 5,4 14,6 26,6l20 0 0 24 -208 0 0 -24 19 0c12,0 22,-2 28,-6 5,-4 8,-10 8,-18l0 -350c0,-9 -3,-15 -8,-19 -6,-4 -16,-6 -28,-6l-19 0 0 -24 239 0c53,0 91,11 114,34 22,22 33,55 33,98 0,33 -6,60 -19,81 -12,21 -33,35 -63,44 15,7 26,17 33,29 7,12 13,28 18,48zm-202 -105l63 0c26,0 45,-8 57,-24 12,-16 18,-40 18,-73 0,-33 -6,-57 -18,-73 -12,-16 -31,-24 -57,-24l-63 0 0 194zm785 194l0 24 -195 0 0 -24 13 0c9,0 16,-1 20,-4 4,-3 6,-7 6,-13 0,-6 -2,-13 -5,-21l-22 -61 -170 0 -24 67c-2,4 -2,8 -2,11 0,7 2,12 8,16 5,3 12,5 20,5l13 0 0 24 -154 0 0 -24 11 0c9,0 17,-2 26,-6 8,-4 14,-10 17,-18l152 -386 72 -26 165 414c3,7 8,13 14,17 7,3 14,5 22,5l13 0zm-196 -133l-70 -194 -73 194 143 0zm828 -290l0 24 -11 0c-9,0 -17,2 -26,7 -9,4 -14,10 -17,17l-122 400 -59 0 -95 -278 -107 278 -72 0 -128 -401c-2,-8 -7,-14 -14,-17 -7,-4 -14,-6 -22,-6l-13 0 0 -24 195 0 0 24 -13 0c-9,0 -15,2 -20,5 -5,3 -7,8 -7,14 0,1 0,3 1,7l79 302 95 -258 -16 -47c-3,-8 -7,-13 -14,-17 -7,-4 -14,-6 -22,-6l-13 0 0 -24 182 0 0 24 -13 0c-8,0 -15,2 -20,5 -5,3 -7,8 -7,14 0,2 0,4 0,6l89 303 77 -300c1,-3 2,-5 2,-7 0,-7 -3,-12 -9,-16 -6,-3 -13,-5 -20,-5l-14 0 0 -24 154 0zm15 423l20 0c23,0 35,-8 35,-24l0 -350c0,-17 -12,-25 -35,-25l-20 0 0 -24 219 0c74,0 129,19 165,56 35,38 53,93 53,167 0,75 -18,131 -54,168 -36,37 -90,56 -164,56l-219 0 0 -24zm217 -10c39,0 69,-16 90,-49 21,-32 31,-79 31,-141 0,-60 -10,-107 -30,-140 -21,-32 -50,-48 -89,-48l-66 0 0 378 64 0zm259 12l251 -390 -142 0c-38,0 -59,29 -64,86l-24 0 0 -121 335 0 0 15 -254 397 169 0c20,0 34,-8 43,-24 10,-16 16,-37 19,-63l24 0 -12 122 -345 0 0 -22zm388 -2l19 0c24,0 36,-8 36,-24l0 -350c0,-17 -12,-25 -36,-25l-19 0 0 -24 208 0 0 24 -19 0c-12,0 -22,2 -28,6 -6,4 -8,10 -8,19l0 350c0,8 2,14 8,18 6,4 16,6 28,6l19 0 0 24 -208 0 0 -24zm914 -423l0 24 -11 0c-9,0 -18,2 -26,7 -9,4 -15,10 -17,17l-122 400 -59 0 -95 -278 -107 278 -73 0 -127 -401c-3,-8 -7,-14 -14,-17 -7,-4 -14,-6 -22,-6l-13 0 0 -24 195 0 0 24 -13 0c-9,0 -16,2 -20,5 -5,3 -7,8 -7,14 0,1 0,3 1,7l78 302 96 -258 -16 -47c-3,-8 -8,-13 -14,-17 -7,-4 -14,-6 -22,-6l-14 0 0 -24 183 0 0 24 -14 0c-8,0 -14,2 -19,5 -5,3 -7,8 -7,14 0,2 0,4 0,6l88 303 78 -300c1,-3 1,-5 1,-7 0,-7 -3,-12 -8,-16 -6,-3 -13,-5 -20,-5l-14 0 0 -24 154 0zm399 325l-12 122 -372 0 0 -24 19 0c12,0 21,-2 27,-6 6,-4 9,-10 9,-18l0 -350c0,-9 -3,-15 -9,-19 -6,-4 -15,-6 -27,-6l-19 0 0 -24 372 0 0 121 -24 0c-5,-57 -26,-86 -64,-86l-132 0 0 162 95 0c13,0 21,-5 26,-15 4,-10 7,-25 9,-44l19 0 0 152 -19 0c-2,-19 -5,-33 -9,-43 -5,-10 -13,-15 -26,-15l-95 0 0 180 146 0c20,0 34,-8 43,-24 9,-16 16,-37 19,-63l24 0zm672 98l0 24 -138 0 -182 -192 0 144c0,8 3,14 8,18 6,4 15,6 27,6l20 0 0 24 -208 0 0 -24 19 0c12,0 21,-2 27,-6 6,-4 9,-10 9,-18l0 -350c0,-9 -3,-15 -9,-19 -6,-4 -15,-6 -27,-6l-19 0 0 -24 208 0 0 24 -20 0c-12,0 -21,2 -27,6 -5,4 -8,10 -8,19l0 149 171 -151c4,-4 5,-7 5,-11 0,-3 -2,-6 -7,-8 -4,-3 -10,-4 -16,-4l-9 0 0 -24 146 0 0 24 -16 0c-14,0 -25,5 -35,14l-179 159 182 193c21,22 41,33 59,33l19 0zm502 0l0 24 -195 0 0 -24 12 0c10,0 17,-1 21,-4 4,-3 6,-7 6,-13 0,-6 -2,-13 -5,-21l-22 -61 -170 0 -25 67c-1,4 -2,8 -2,11 0,7 3,12 9,16 5,3 12,5 19,5l14 0 0 24 -154 0 0 -24 10 0c9,0 18,-2 26,-6 9,-4 15,-10 18,-18l151 -386 73 -26 165 414c3,7 8,13 14,17 7,3 14,5 21,5l14 0zm-196 -133l-71 -194 -72 194 143 0zm683 133l0 24 -138 0 -183 -192 0 144c0,8 3,14 9,18 6,4 14,6 26,6l20 0 0 24 -208 0 0 -24 19 0c13,0 22,-2 28,-6 6,-4 9,-10 9,-18l0 -350c0,-9 -3,-15 -9,-19 -6,-4 -15,-6 -28,-6l-19 0 0 -24 208 0 0 24 -20 0c-12,0 -20,2 -26,6 -6,4 -9,10 -9,19l0 149 172 -151c3,-4 5,-7 5,-11 0,-3 -2,-6 -7,-8 -5,-3 -10,-4 -16,-4l-10 0 0 -24 147 0 0 24 -16 0c-14,0 -26,5 -35,14l-179 159 182 193c21,22 41,33 58,33l20 0zm501 0l0 24 -195 0 0 -24 13 0c9,0 16,-1 20,-4 4,-3 6,-7 6,-13 0,-6 -1,-13 -4,-21l-23 -61 -169 0 -25 67c-1,4 -2,8 -2,11 0,7 3,12 8,16 6,3 12,5 20,5l13 0 0 24 -153 0 0 -24 10 0c9,0 18,-2 26,-6 9,-4 14,-10 17,-18l152 -386 73 -26 164 414c3,7 8,13 15,17 6,3 13,5 21,5l13 0zm-195 -133l-71 -194 -73 194 144 0zm421 163c-78,0 -136,-20 -175,-61 -39,-41 -58,-97 -58,-169 0,-72 19,-128 58,-168 39,-41 97,-61 175,-61 77,0 135,20 174,61 39,40 59,96 59,168 0,72 -19,128 -58,169 -39,41 -98,61 -175,61zm-1 -36c44,0 77,-17 100,-51 24,-34 35,-82 35,-143 0,-60 -11,-108 -35,-142 -23,-34 -56,-52 -100,-52 -43,0 -76,18 -99,52 -23,34 -34,82 -34,142 0,61 11,109 34,143 23,34 56,51 99,51z"/>
  <line class="fil1 str0" x1="5284" y1="1419" x2="3489" y2= "1419" />
  <path class="fil0" d="M5645 1511l0 16 -130 0 0 -16 9 0c7,0 12,-1 16,-4 4,-3 6,-7 6,-12l0 -112c0,-28 -13,-41 -38,-41 -8,0 -16,2 -24,7 -8,4 -15,12 -20,22 -6,10 -8,22 -8,38l0 86c0,5 2,9 6,12 4,3 9,4 16,4l8 0 0 16 -129 0 0 -16 11 0c7,0 13,-1 17,-4 4,-3 6,-7 6,-12l0 -128c0,-9 -4,-13 -12,-13 -2,0 -5,1 -10,3l-4 -14 77 -25 14 0 0 34c6,-11 17,-19 30,-26 14,-6 29,-9 44,-9 26,0 46,5 60,16 13,11 20,26 20,44l0 118c0,5 2,9 6,12 4,3 10,4 18,4l11 0zm79 20c-19,0 -34,-4 -46,-12 -11,-8 -17,-20 -17,-34 0,-23 11,-40 34,-54 23,-14 58,-24 105,-30l0 -18c0,-14 -5,-25 -13,-32 -8,-7 -19,-10 -33,-10 -11,0 -20,2 -28,6 -8,4 -13,8 -13,13 0,1 1,3 2,7 0,3 1,5 1,7 0,3 -2,7 -7,11 -4,3 -9,5 -16,5 -8,0 -14,-2 -18,-7 -4,-4 -6,-10 -6,-17 0,-16 9,-28 27,-36 18,-9 42,-13 71,-13 30,0 54,6 71,18 18,13 26,30 26,50l0 110c0,5 1,9 3,11 2,2 5,3 9,3 4,0 10,-1 17,-3l0 11c-6,4 -13,8 -22,10 -9,3 -18,4 -27,4 -12,0 -22,-2 -31,-6 -8,-5 -12,-11 -12,-21l0 -4c-10,11 -22,19 -36,24 -14,5 -27,7 -41,7zm32 -24c8,0 16,-3 25,-8 8,-6 15,-12 19,-20l0 -60c-26,7 -45,16 -57,27 -13,11 -19,22 -19,34 0,8 3,15 9,20 6,5 13,7 23,7zm149 102l11 0c7,0 13,-1 17,-4 4,-2 6,-6 6,-11l0 -227c0,-9 -4,-13 -12,-13 -2,0 -5,1 -11,3l-4 -14 77 -25 14 0 0 28c9,-10 19,-18 31,-23 13,-4 25,-6 38,-6 29,0 52,8 69,26 17,18 26,43 26,76 0,40 -9,68 -28,86 -18,17 -45,26 -80,26 -12,0 -23,-2 -33,-7 -10,-5 -18,-11 -23,-18l0 87c0,5 2,9 6,12 4,3 10,4 18,4l9 0 0 16 -131 0 0 -16zm147 -101c34,0 52,-29 52,-87 0,-28 -5,-48 -13,-61 -9,-13 -22,-20 -41,-20 -6,0 -13,2 -21,7 -7,4 -13,10 -18,18 -5,8 -8,17 -8,28l0 62c0,15 5,28 13,38 9,10 20,15 36,15zm209 -238l53 -54c8,-9 17,-14 27,-14 7,0 12,2 16,6 3,4 5,8 5,13 0,5 -2,9 -5,13 -4,4 -9,9 -16,13l-69 40 -11 -17zm51 261c-40,0 -71,-9 -92,-27 -21,-19 -31,-45 -31,-80 0,-35 10,-61 31,-80 21,-18 52,-27 92,-27 40,0 70,9 91,27 21,19 32,45 32,80 0,35 -11,61 -32,80 -21,18 -51,27 -91,27zm0 -23c18,0 32,-7 43,-21 10,-15 15,-36 15,-63 0,-27 -5,-48 -15,-62 -11,-15 -25,-22 -43,-22 -19,0 -33,7 -43,22 -11,14 -16,35 -16,62 0,27 5,48 16,63 10,14 24,21 43,21zm215 -225c-10,0 -18,-3 -24,-9 -6,-6 -9,-14 -9,-23 0,-10 3,-18 9,-24 6,-6 14,-9 24,-9 10,0 18,3 24,9 6,7 9,14 9,24 0,9 -3,17 -9,23 -6,6 -14,9 -24,9zm-77 297c13,-5 24,-12 31,-21 7,-9 11,-19 13,-30 3,-11 4,-25 4,-41l0 -121c0,-9 -4,-13 -13,-13 -1,0 -5,1 -10,3l-4 -14 77 -25 14 0 0 166c0,66 -37,102 -110,107l-2 -11zm416 -49c-18,0 -34,-3 -46,-8 -13,-6 -22,-13 -29,-23l-16 27 -29 0 0 -265c0,-8 -4,-13 -12,-13 -2,0 -6,1 -11,3l-3 -14 76 -25 14 0 0 133c8,-11 18,-18 30,-23 13,-4 25,-6 37,-6 30,0 53,9 70,27 18,17 27,43 27,76 0,40 -10,68 -28,85 -18,17 -45,26 -80,26zm-7 -23c34,0 51,-28 51,-86 0,-27 -4,-48 -13,-61 -9,-14 -22,-21 -41,-21 -7,0 -14,2 -21,7 -7,4 -13,10 -18,18 -5,8 -7,17 -7,27l0 59c0,15 4,29 13,40 9,12 21,17 36,17zm264 23c-40,0 -71,-9 -92,-27 -21,-19 -31,-45 -31,-80 0,-35 10,-61 31,-80 21,-18 52,-27 92,-27 40,0 70,9 91,27 21,19 32,45 32,80 0,35 -11,61 -32,80 -21,18 -51,27 -91,27zm0 -23c18,0 32,-7 43,-21 10,-15 15,-36 15,-63 0,-27 -5,-48 -15,-62 -11,-15 -25,-22 -43,-22 -19,0 -33,7 -43,22 -11,14 -16,35 -16,62 0,27 5,48 16,63 10,14 24,21 43,21zm359 -191c10,0 19,2 25,6 7,5 10,11 10,17 0,7 -1,12 -5,15 -3,4 -8,5 -15,5 -4,0 -7,0 -8,-2 -2,-1 -4,-4 -7,-7 -1,-3 -3,-5 -6,-7 -2,-2 -5,-3 -10,-3 -3,0 -8,1 -14,4 10,11 15,25 15,42 0,23 -9,40 -26,51 -17,12 -41,18 -73,18 -18,0 -35,-2 -49,-6 -7,5 -10,11 -10,16 0,5 2,8 6,11 4,3 9,4 16,4l81 0c20,0 37,5 50,13 13,9 20,22 20,39 0,21 -11,38 -31,50 -20,13 -49,19 -86,19 -32,0 -56,-5 -73,-14 -17,-9 -26,-22 -26,-39 0,-17 11,-29 33,-36 -18,-6 -27,-17 -27,-34 0,-13 9,-25 28,-37 -21,-12 -32,-31 -32,-55 0,-22 9,-40 27,-52 17,-12 41,-18 73,-18 29,0 52,5 69,15 13,-10 28,-15 45,-15zm-114 117c12,0 21,-4 27,-13 6,-9 9,-20 9,-34 0,-14 -3,-26 -9,-34 -6,-9 -15,-14 -27,-14 -12,0 -22,5 -27,14 -6,8 -9,20 -9,34 0,14 3,25 9,34 5,9 15,13 27,13zm-39 88c-7,3 -11,7 -14,12 -3,5 -5,10 -5,15 0,10 5,18 16,24 10,5 23,8 40,8 19,0 33,-3 44,-9 10,-6 15,-15 15,-27 0,-8 -3,-14 -9,-17 -6,-4 -17,-6 -31,-6l-56 0zm254 -252l53 -54c9,-9 18,-14 27,-14 7,0 12,2 16,6 4,4 5,8 5,13 0,5 -1,9 -5,13 -3,4 -9,9 -16,13l-68 40 -12 -17zm51 261c-40,0 -70,-9 -91,-27 -21,-19 -32,-45 -32,-80 0,-35 11,-61 32,-80 21,-18 51,-27 91,-27 40,0 71,9 92,27 21,19 31,45 31,80 0,35 -10,61 -31,80 -21,18 -52,27 -92,27zm0 -23c18,0 33,-7 43,-21 11,-15 16,-36 16,-63 0,-27 -5,-48 -16,-62 -10,-15 -25,-22 -43,-22 -18,0 -33,7 -43,22 -10,14 -15,35 -15,62 0,27 5,48 15,63 10,14 25,21 43,21zm484 -187l0 16 -6 0c-5,0 -10,1 -15,4 -5,2 -8,6 -10,11l-53 175 -50 0 -39 -154 -46 154 -50 0 -48 -168c-3,-8 -5,-14 -7,-17 -3,-3 -7,-5 -13,-5l-8 0 0 -16 107 0 0 16 -7 0c-12,0 -18,4 -18,12 0,2 0,3 0,4l32 123 45 -155 45 0 44 158 34 -123c0,-3 0,-5 0,-6 0,-4 -1,-8 -4,-10 -4,-2 -7,-3 -11,-3l-9 0 0 -16 87 0z"/>
  <line class="fil1 str0" x1="9986" y1="1419" x2="8191" y2= "1419" />
  <g id="_2619244777792">
   <path class="fil2" d="M1257 1984c-3,-19 17,-40 24,-57 8,-20 16,-45 21,-64 11,-48 10,-126 16,-139l3 -6c5,-7 80,-5 90,-3 28,42 1,149 -6,198 -3,19 -1,35 -11,48 -6,8 -20,22 -32,26 -20,5 -88,5 -105,-3zm689 -415c-5,24 -6,26 -17,43 -38,61 -27,182 -72,221 -11,10 -22,14 -34,23 -11,8 -27,16 -39,22 -19,9 -29,19 -75,40 -38,18 -141,39 -187,50 -14,3 -35,6 -52,2 -41,-11 -16,-52 -7,-80 32,-111 13,-86 5,-145 -3,-26 1,-29 21,-37 16,-7 8,-6 17,-14 17,-15 7,12 82,-66 45,-47 57,-78 150,-83 47,-3 123,0 176,0 25,0 37,-4 32,24zm-920 163c51,0 94,1 145,-3 24,-2 59,-7 80,-3 22,42 -15,217 -55,240 -12,7 -91,5 -109,4 -47,-1 -118,-7 -155,-29 -58,-35 -87,-39 -124,-120 -23,-48 -30,-42 -30,-110 0,-35 -1,-43 10,-71 10,-28 44,-83 71,-92 46,-17 21,20 13,34 -27,42 -12,97 20,118 16,11 37,18 58,24 33,9 40,8 76,8zm1206 -55c-15,0 -24,-2 -30,-12 -18,-30 58,-32 43,-79 -23,-10 -23,-1 -44,12 -14,8 -29,18 -37,30 -40,58 25,126 133,112 19,-2 38,-6 56,-11 53,-14 87,-42 125,-78 60,-58 49,-195 60,-213 7,-11 29,-22 37,-29 14,-10 26,-18 45,-25 86,-34 81,121 77,182 -4,53 -30,106 -57,147 -13,18 -45,58 -64,72 -12,9 -28,16 -40,27 -22,23 -50,39 -84,52 -105,39 -285,65 -396,30 -17,-6 -32,-14 -46,-21 -54,-27 -65,-68 -54,-132 10,-58 31,-154 76,-187 18,-13 32,-7 57,-9 55,-5 123,-10 174,-24 13,-3 102,-24 107,-23 10,21 4,49 -7,65 -39,57 -81,50 -86,79 -6,31 11,35 -45,35zm123 -37c-1,-15 8,-13 29,-47 28,-44 24,-35 34,-88 2,-15 1,-19 14,-24 12,-5 50,-29 59,-8 15,36 -12,76 -21,95 -6,13 -6,16 -15,27 -16,19 -73,66 -100,45zm-1422 -466c3,18 4,76 44,46 40,-28 36,-32 76,-32 23,0 46,-1 55,17 -3,32 -66,37 -46,88 41,16 39,-33 83,-54 18,-9 35,8 44,19 12,16 14,29 15,56 2,27 3,41 -13,56 -47,49 -90,5 -153,-20 -16,-7 -33,-11 -51,-18 -39,-16 -102,-58 -133,-82 -11,-8 -26,-26 -31,-39 -32,-82 10,-57 52,-51 20,3 42,8 58,14zm876 294c-2,-23 21,-29 35,-42 14,-12 63,-67 71,-87 22,-55 16,-167 -10,-210 -24,-42 -72,-46 -117,-35 -37,9 -92,23 -113,45 -14,15 -23,21 -36,43 -25,40 -6,49 -26,54 -31,9 -121,5 -91,-57 35,-71 114,-111 193,-125 45,-8 88,-22 135,-24 45,-1 103,6 139,22 49,21 54,38 80,80 21,35 27,88 18,135 -6,29 -12,36 -18,60 -10,34 -35,76 -60,101 -8,7 -35,31 -46,35 -14,6 -132,8 -154,5zm981 -1136c7,3 10,11 12,21 3,9 4,18 6,27 11,49 25,140 20,187 -3,29 -7,32 -22,49 -10,11 -16,27 -28,41 -65,71 -47,81 -134,142 -45,30 -12,24 -105,68 -25,11 -48,24 -77,28 -21,3 -38,6 -54,16 -34,23 -34,79 54,48 19,-7 74,-37 93,-49 12,-7 18,-12 31,-18 16,-6 51,-26 61,-35l165 -173c9,-13 10,-18 30,-19 17,22 17,63 10,97 -12,59 -63,87 -110,120 -45,32 -85,66 -135,95 -26,15 -92,45 -120,52 -16,4 -29,9 -44,14 -34,11 -68,3 -84,32 1,30 29,34 58,33 36,-3 46,-6 76,-18 82,-34 113,-40 183,-96l124 -109c58,-55 51,81 -21,136 -29,21 -60,44 -94,61 -25,13 -56,43 -100,57 -16,5 -24,7 -38,14 -14,6 -27,6 -43,12 -45,18 -136,23 -133,77 13,26 93,13 117,6 83,-24 144,-74 213,-120 8,-5 15,-7 23,-13 11,-8 22,-22 29,-26 14,-8 7,-2 11,-1 1,0 2,0 3,1 14,4 -12,35 -17,43 -14,29 -32,57 -54,79 -15,14 -25,19 -40,30 -53,42 -138,105 -201,135 -49,23 -100,39 -156,47 -35,5 -224,34 -244,26 0,-23 47,-59 65,-123 31,-112 20,-213 -58,-300 -27,-30 -87,-59 -130,-63 -109,-12 -224,14 -318,60 -58,29 -121,88 -140,152 -34,121 162,146 193,99 10,-16 4,-26 6,-44 2,-27 32,-34 53,-43 22,-10 44,-21 73,-23 39,-4 55,-3 64,31 28,105 -36,206 -133,242 -67,25 -81,32 -165,23 -89,-10 -174,-17 -261,-30 -15,-2 -28,-3 -43,-5 -9,-1 -12,-1 -20,-4 -29,-10 -9,-31 -3,-56 4,-14 9,-42 9,-57 1,-31 -20,-75 -34,-96 -5,-8 -25,-25 -32,-31 -11,-9 -27,-17 -40,-27 -48,-36 -158,-41 -218,-46 -21,-1 -35,-6 -55,-9 -72,-8 -43,-32 -16,-56l34 -32c11,-10 27,-19 33,-34 6,-12 3,-43 -2,-57 -8,-23 -11,-27 -4,-55 5,-16 11,-36 21,-46 30,-32 78,-51 115,-79 14,-10 23,-23 35,-32 13,-9 28,-17 26,-39 -3,-40 -51,-38 -33,-86 12,-33 25,-61 43,-90 15,-25 34,-54 54,-77 17,-20 48,-47 69,-64 66,-57 180,-96 261,-129 41,-17 111,-34 155,-46 29,-8 76,-18 107,-23 38,-6 82,-3 123,-7 86,-7 171,5 255,4 34,-1 152,20 182,45 8,8 6,8 18,16 22,13 37,50 49,81 25,69 -5,151 -37,209 -9,16 -18,26 -27,40 -9,15 -16,28 -27,39 -9,9 -25,20 -26,37 -2,20 15,28 35,29 35,1 96,4 123,-10 40,-22 80,-123 93,-167 34,-116 -19,-221 23,-235 57,-19 50,23 49,70 -2,62 -16,167 -41,219 -5,11 -5,14 -9,25l-32 68c-11,22 -43,55 -67,63 -10,4 -14,7 -21,9 -21,8 -64,4 -71,30 -6,20 13,29 32,30 27,0 32,-11 49,-19 20,-8 68,-37 81,-52 59,-64 39,-50 78,-120 23,-43 32,-108 40,-156 17,-92 -26,-214 77,-165 40,19 28,52 23,95 -6,53 -22,112 -33,164 -12,54 -82,175 -119,208 -26,24 -79,78 -107,91 -30,13 -85,18 -91,39 -6,19 9,36 24,40 23,6 73,-26 91,-38 31,-19 134,-127 165,-162l27 -40c18,-26 28,-59 42,-91 13,-31 18,-69 27,-104 5,-21 8,-31 10,-55 2,-18 3,-44 16,-52zm-1452 1204c-34,32 -187,45 -245,38 -18,-2 -115,-25 -118,-24 -27,4 -28,49 44,71 74,24 180,12 260,0 67,-10 59,0 114,-64 8,-9 8,-9 22,-15 26,-9 35,-6 66,-6 34,1 119,-4 77,50 -19,24 -58,46 -89,56 -38,13 -161,-6 -267,15 -60,11 -210,27 -264,6 -17,-6 -33,-17 -36,-34 -7,-34 11,-32 23,-49 18,-27 1,-33 23,-49 15,-10 33,-21 23,-44 -17,-39 -155,-36 -215,24 -53,54 -71,119 -71,218 0,47 6,85 24,120l44 65c49,59 125,103 204,122 84,19 169,19 256,31 42,5 240,4 281,-3 79,-14 169,-19 239,-49 53,-23 109,-60 157,-94 24,-17 23,-32 57,11 19,23 50,40 77,51 16,6 27,15 44,20 62,20 168,7 234,-3 71,-11 137,-35 196,-59 29,-12 58,-28 84,-44 79,-50 138,-119 164,-220 14,-57 29,-175 16,-235 -10,-45 -17,-56 -35,-92 -24,-47 8,-53 28,-80 36,-49 78,-96 100,-158 47,-133 25,-78 51,-203 22,-114 20,-356 -12,-469 -20,-71 -32,-135 -58,-199 -13,-33 -30,-55 -56,-72 -38,-24 -50,-24 -102,-24 -51,0 -68,0 -113,14 -97,31 -86,76 -67,169 6,33 4,84 -3,116 -8,47 -30,97 -65,126 -10,9 -23,24 -46,19 -15,-45 54,-72 69,-200 8,-69 -20,-178 -51,-223 -17,-25 -53,-46 -79,-58 -25,-10 -80,-26 -107,-32 -16,-4 -48,-5 -66,-6 -20,-1 -38,-5 -60,-7 -298,-15 -438,-7 -711,113 -36,16 -61,31 -89,50 -29,21 -56,36 -83,57 -32,26 -43,32 -75,64l-49 51c-7,9 -10,15 -14,22 -25,39 -83,162 -43,206 51,58 -24,54 -48,62 -70,23 -113,85 -119,156 -8,93 12,89 -21,112l-52 52c-4,5 -8,16 -12,24 -32,61 -26,189 0,234l65 75c17,16 117,66 135,71 22,6 33,12 52,18 36,11 62,25 105,34l166 43c27,8 41,0 41,29z"/>
   <path class="fil2" d="M547 1372c-11,-17 -27,-20 -51,-14 -19,5 -38,11 -57,17 -46,14 -67,20 -105,47 -33,24 -94,106 -114,147 -2,5 -3,9 -5,13l-12 12c-10,-25 -7,-36 -7,-68 0,-37 1,-37 17,-61 7,-9 6,-14 13,-23 12,-14 26,-28 36,-43 21,-35 66,-71 100,-94 19,-13 31,-18 61,-19 18,-1 45,-8 67,-11 70,-9 68,-58 6,-52 -39,4 -98,9 -130,25 -15,8 -30,21 -46,30 -20,13 -29,21 -43,36 -15,18 -54,82 -78,72 -5,-9 -6,-57 -1,-69 7,-16 27,-31 37,-42 24,-28 60,-42 84,-74 21,-27 64,-46 93,-61 24,-13 26,-15 57,-22 23,-5 51,-4 75,-5 27,0 35,-22 21,-41 -11,-14 -48,-9 -70,-9 -43,1 -93,11 -123,33 -18,13 -24,23 -41,35 -31,21 -62,44 -89,69 -11,11 -23,32 -45,31 -6,-17 4,-55 6,-74 5,-55 14,-73 61,-101 17,-10 31,-26 48,-38 10,-8 58,-60 99,-67l138 -29c22,-4 56,7 70,-12 19,-24 -8,-39 -32,-39 -32,0 -123,9 -152,16 -40,11 -84,29 -113,53 -21,17 -53,36 -69,56 -8,12 -8,17 -28,16 1,-30 12,-55 19,-83 14,-62 30,-51 73,-79 12,-7 12,-13 28,-23 43,-27 89,-48 137,-66 94,-36 95,-15 170,-32 24,-6 59,-21 62,-42 -9,-16 -25,-21 -50,-17 -107,13 -71,8 -178,32 -40,9 -115,36 -142,66 -10,11 -31,25 -46,26 4,-34 11,-64 26,-94 15,-31 41,-38 67,-54 14,-8 15,-6 30,-10 13,-3 6,-2 15,-6 8,-2 11,-2 17,-4 24,-6 28,-16 58,-20 23,-4 45,-14 66,-16 14,-2 148,-12 148,-12 6,-4 3,0 8,-8 6,-11 5,-28 -5,-34 -25,-17 -144,-5 -170,1 -17,5 -34,11 -50,14 -19,4 -34,5 -53,10 -52,14 -76,42 -89,25 -10,-13 5,-43 13,-56 15,-26 60,-59 88,-69 14,-5 45,-15 57,-21 59,-28 144,-23 211,-23 13,0 25,-1 33,-6 8,-5 16,-10 21,-18 -3,-18 -20,-30 -42,-30 -46,1 -104,-3 -148,0 -17,1 -46,22 -59,7 -26,-26 87,-48 101,-50 28,-2 120,-12 137,-24 21,-15 19,-36 -3,-46 -39,-18 -92,8 -132,21 -57,18 -123,31 -164,79 -29,34 -85,75 -105,98 -6,7 -10,13 -17,21l-36 47c-29,51 -29,52 -51,112 -7,20 -13,39 -20,59 -13,41 -30,76 -42,118 -6,22 -15,35 -21,62 -10,44 -27,82 -35,125 -15,72 -22,148 -21,222 0,42 -5,103 -4,161 2,68 7,163 18,226 13,74 44,109 91,152 8,7 15,8 19,20 13,49 -56,8 -70,-2l-44 -39c-34,-33 -38,-53 -50,-110 -9,-48 -20,-94 -20,-144 1,-162 -3,-305 22,-463 8,-50 19,-87 29,-134 11,-48 20,-84 34,-128 6,-21 11,-44 17,-65 8,-29 22,-63 27,-94 7,-46 41,-102 63,-140 9,-18 23,-31 36,-45l42 -37c10,-6 16,-7 25,-15 21,-21 45,-36 69,-55l52 -30c34,-16 78,-37 118,-43 25,-3 44,-12 66,-15 25,-4 49,-5 74,-8 24,-3 54,1 78,-1 27,-2 41,-22 22,-44 -16,-19 -114,-15 -146,-14 -72,0 -137,17 -200,43 -21,8 -40,14 -59,23 -37,17 -65,44 -99,62 -29,15 -63,52 -86,77 -46,48 -68,85 -94,149 -38,93 -30,91 -57,185 -12,44 -23,84 -36,128l-30 131c-9,49 -14,92 -21,143 -14,113 -26,346 -8,462 9,55 17,81 35,128 6,18 15,39 25,54 7,11 28,40 35,46 70,65 127,93 228,95 57,1 164,12 208,-30 10,-10 29,-37 7,-50 -13,-8 -55,1 -72,3 -26,2 -123,8 -130,-25 -7,-34 31,-90 56,-105 16,-10 37,-17 56,-26 10,-5 106,-28 79,-72 -21,-31 -161,28 -191,75 -6,10 -9,16 -18,24 -16,16 -20,37 -32,50 -29,33 -72,-51 -56,-84 9,-18 18,-38 29,-53 22,-32 41,-68 70,-93 34,-30 55,-47 100,-60 38,-11 110,-12 109,-55z"/>
   <path class="fil2" d="M1806 626c-15,107 -23,140 -139,165 -52,11 -99,23 -154,28 -53,4 -184,5 -229,-12 -20,-8 -66,-29 -78,-43 -14,-17 -15,-86 9,-94 42,-15 266,18 313,-21 7,-6 10,-7 18,-12 14,-10 47,-48 58,-63 45,-58 -20,-122 68,-116 12,1 15,4 25,6 19,3 36,-2 68,23 36,27 45,106 41,139zm-223 -115c-5,18 -17,30 -25,41 -15,24 -33,8 -18,-15 11,-15 14,-29 23,-44 13,-24 28,-8 20,18zm-57 -14c-11,24 -26,42 -51,51 -27,10 -52,19 -83,22 -15,2 -98,14 -111,21 -10,5 -8,7 -13,13 -16,19 -29,-1 -19,-18l60 -43c26,-15 45,-22 73,-33 27,-12 51,-17 82,-25 20,-5 82,-30 62,12zm-139 387l3 0c88,0 181,4 268,-17 46,-11 69,-23 99,-46 12,-11 29,-24 37,-36 10,-14 17,-33 32,-41 20,1 20,16 58,15 72,-3 116,-5 173,-44 22,-15 57,-49 68,-77 26,-67 39,-187 28,-259 -9,-58 -6,-72 -37,-112 -74,-96 -139,-92 -248,-92 -18,0 -77,-6 -87,4 -20,21 22,39 41,42 53,9 90,-8 171,14 43,12 82,43 101,84 40,79 -2,228 -33,306 -21,51 -58,54 -117,69 -17,4 -66,9 -82,2 -24,-10 -12,-38 -10,-73 3,-57 -9,-181 -64,-211 -19,-11 -41,-19 -67,-23 -119,-15 -342,42 -438,112 -16,12 -36,29 -51,41 -32,25 -57,73 -69,116 -6,24 -10,58 -6,85 6,54 13,76 79,106 52,23 85,35 151,35z"/>
   <path class="fil2" d="M1385 2c-46,10 -62,15 -75,60 -4,17 8,35 20,42 24,14 30,5 54,1 52,-9 8,6 48,-18 12,-7 30,-16 29,-36 -1,-37 -37,-58 -76,-49z"/>
   <path class="fil2" d="M1075 63c-18,8 -23,9 -35,26 -41,56 -15,86 62,79 48,-4 73,-70 19,-98 -4,-2 -16,-6 -22,-8 -14,-5 -11,-5 -24,1z"/>
   <path class="fil2" d="M1038 883c25,0 44,-11 43,-38 -1,-21 -25,-39 -48,-35 -48,7 -67,73 5,73z"/>
  </g>
  <path class="fil0" d="M3086 220l-25 -44c-1,0 -3,0 -6,0l-33 0 0 44 -28 0 0 -148 61 0c20,0 34,4 45,13 10,9 16,21 16,37 0,12 -3,22 -8,30 -5,8 -12,14 -22,18l33 50 -33 0zm-64 -69l33 0c11,0 19,-2 25,-7 6,-5 8,-12 8,-21 0,-9 -2,-15 -8,-20 -6,-4 -14,-7 -25,-7l-33 0 0 55z"/>
  <path class="fil2" d="M3056 0c81,0 146,65 146,146 0,80 -65,145 -146,145 -80,0 -145,-65 -145,-145 0,-81 65,-146 145,-146zm0 27c66,0 119,53 119,119 0,65 -53,118 -119,118 -65,0 -118,-53 -118,-118 0,-66 53,-119 118,-119z"/>
 </g>
</svg>
