<?xml version="1.0" encoding="UTF-8"?>
<!DOCTYPE svg PUBLIC "-//W3C//DTD SVG 1.1//EN" "http://www.w3.org/Graphics/SVG/1.1/DTD/svg11.dtd">
<!-- Creator: CorelDRAW X7 -->
<svg xmlns="http://www.w3.org/2000/svg" xml:space="preserve" width="165.735mm" height="33.8813mm" version="1.1" style="shape-rendering:geometricPrecision; text-rendering:geometricPrecision; image-rendering:optimizeQuality; fill-rule:evenodd; clip-rule:evenodd"
viewBox="0 0 10129 2071"
 xmlns:xlink="http://www.w3.org/1999/xlink">
 <defs>
  <style type="text/css">
   <![CDATA[
    .str0 {stroke:#FEFEFE;stroke-width:45.8349}
    .fil1 {fill:none}
    .fil2 {fill:white}
    .fil0 {fill:white;fill-rule:nonzero}
   ]]>
  </style>
 </defs>
 <g id="Warstwa_x0020_1">
  <metadata id="CorelCorpID_0Corel-Layer"/>
  <path class="fil0" d="M3334 879l20 0c12,0 21,-2 27,-6 6,-4 9,-10 9,-18l0 -350c0,-9 -3,-15 -9,-19 -6,-4 -15,-6 -27,-6l-20 0 0 -24 241 0c53,0 91,12 113,36 23,24 34,58 34,102 0,43 -11,77 -34,101 -22,25 -60,37 -113,37l-88 0 0 123c0,8 3,15 9,18 6,4 15,6 27,6l19 0 0 24 -208 0 0 -24zm219 -182c48,0 73,-35 73,-103 0,-69 -25,-103 -73,-103l-66 0 0 206 66 0zm547 93c5,19 11,34 16,46 5,12 12,22 21,30 8,8 19,13 33,13l0 24 -72 0c-26,0 -45,-5 -57,-15 -13,-10 -23,-27 -30,-50 -3,-11 -6,-25 -9,-40 -5,-21 -9,-37 -13,-49 -4,-12 -11,-21 -21,-29l-70 0 0 135c0,8 3,15 8,18 6,4 15,6 27,6l19 0 0 24 -207 0 0 -24 19 0c12,0 21,-2 27,-6 6,-4 9,-10 9,-18l0 -350c0,-9 -3,-15 -9,-19 -6,-4 -15,-6 -27,-6l-19 0 0 -24 239 0c53,0 91,11 113,34 23,22 34,55 34,98 0,33 -6,60 -19,81 -13,21 -34,36 -63,44 15,7 26,17 32,29 7,12 13,28 19,48zm-202 -105l63 0c26,0 45,-8 57,-24 11,-16 17,-40 17,-73 0,-33 -6,-57 -17,-73 -12,-16 -31,-24 -57,-24l-63 0 0 194zm785 194l0 24 -195 0 0 -24 12 0c10,0 17,-1 21,-4 4,-3 6,-7 6,-13 0,-6 -2,-13 -5,-21l-22 -61 -170 0 -25 67c-1,4 -2,8 -2,11 0,7 3,12 9,16 5,3 12,5 19,5l14 0 0 24 -154 0 0 -24 10 0c9,0 18,-2 26,-6 9,-4 15,-10 18,-17l151 -387 73 -26 165 414c3,7 8,13 14,17 7,3 14,5 21,5l14 0zm-196 -133l-71 -194 -72 194 143 0zm828 -290l0 24 -11 0c-9,0 -18,3 -26,7 -9,4 -15,10 -17,17l-122 400 -59 0 -95 -278 -107 278 -73 0 -127 -401c-3,-8 -7,-14 -14,-17 -7,-4 -14,-6 -22,-6l-13 0 0 -24 195 0 0 24 -14 0c-8,0 -15,2 -19,5 -5,3 -7,8 -7,14 0,1 0,4 1,7l78 302 95 -258 -15 -47c-3,-7 -8,-13 -15,-17 -6,-4 -14,-6 -21,-6l-14 0 0 -24 183 0 0 24 -14 0c-8,0 -14,2 -19,5 -5,3 -7,8 -7,14 0,2 0,4 0,6l88 303 78 -300c1,-3 1,-5 1,-7 0,-7 -3,-12 -9,-15 -5,-4 -12,-6 -19,-6l-14 0 0 -24 154 0zm15 423l19 0c24,0 36,-8 36,-24l0 -350c0,-17 -12,-25 -36,-25l-19 0 0 -24 219 0c74,0 129,19 164,56 36,38 54,93 54,167 0,75 -18,131 -54,168 -36,37 -91,56 -164,56l-219 0 0 -24zm217 -10c39,0 69,-16 90,-49 20,-32 31,-79 31,-141 0,-60 -10,-107 -31,-140 -20,-32 -49,-48 -88,-48l-66 0 0 378 64 0zm259 12l251 -390 -142 0c-38,0 -59,29 -64,86l-24 0 0 -121 335 0 0 15 -254 397 169 0c20,0 34,-8 43,-24 10,-16 16,-37 19,-62l24 0 -12 121 -345 0 0 -22zm388 -2l19 0c24,0 36,-8 36,-24l0 -350c0,-17 -12,-25 -36,-25l-19 0 0 -24 208 0 0 24 -19 0c-12,0 -22,2 -28,6 -6,4 -8,10 -8,19l0 350c0,8 2,14 8,18 6,4 16,6 28,6l19 0 0 24 -208 0 0 -24zm914 -423l0 24 -11 0c-9,0 -17,3 -26,7 -9,4 -15,10 -17,17l-122 400 -59 0 -95 -278 -107 278 -73 0 -127 -401c-3,-8 -7,-14 -14,-17 -7,-4 -14,-6 -22,-6l-13 0 0 -24 195 0 0 24 -13 0c-9,0 -16,2 -20,5 -5,3 -7,8 -7,14 0,1 0,4 1,7l79 302 95 -258 -16 -47c-3,-7 -8,-13 -14,-17 -7,-4 -14,-6 -22,-6l-13 0 0 -24 182 0 0 24 -13 0c-9,0 -15,2 -20,5 -5,3 -7,8 -7,14 0,2 0,4 0,6l88 303 78 -300c1,-3 2,-5 2,-7 0,-7 -3,-12 -9,-15 -6,-4 -13,-6 -20,-6l-14 0 0 -24 154 0zm399 325l-12 122 -372 0 0 -24 19 0c12,0 21,-2 27,-6 6,-3 9,-10 9,-18l0 -350c0,-9 -3,-15 -9,-19 -6,-4 -15,-6 -27,-6l-19 0 0 -24 372 0 0 121 -24 0c-5,-57 -26,-86 -64,-86l-132 0 0 162 95 0c13,0 22,-5 26,-15 4,-10 7,-25 9,-44l20 0 0 152 -20 0c-2,-19 -5,-33 -9,-43 -4,-10 -13,-15 -26,-15l-95 0 0 180 146 0c20,0 34,-8 43,-24 10,-16 16,-37 19,-63l24 0zm672 98l0 24 -138 0 -182 -192 0 144c0,8 3,15 9,18 5,4 14,6 26,6l20 0 0 24 -208 0 0 -24 19 0c12,0 21,-2 27,-6 6,-4 9,-10 9,-18l0 -350c0,-9 -3,-15 -9,-19 -6,-4 -15,-6 -27,-6l-19 0 0 -24 208 0 0 24 -20 0c-12,0 -21,2 -26,6 -6,4 -9,10 -9,19l0 150 172 -152c3,-4 5,-7 5,-10 0,-4 -3,-7 -7,-9 -5,-3 -10,-4 -16,-4l-10 0 0 -24 146 0 0 24 -16 0c-13,0 -25,5 -35,14l-178 159 181 193c22,22 41,33 59,33l19 0zm502 0l0 24 -195 0 0 -24 13 0c9,0 16,-1 20,-4 4,-3 6,-7 6,-13 0,-6 -2,-13 -5,-21l-22 -61 -170 0 -24 67c-2,4 -2,8 -2,11 0,7 2,12 8,16 5,3 12,5 20,5l13 0 0 24 -154 0 0 -24 11 0c9,0 17,-2 26,-6 8,-4 14,-10 17,-17l152 -387 73 -26 164 414c3,7 8,13 14,17 7,3 14,5 22,5l13 0zm-196 -133l-70 -194 -73 194 143 0zm683 133l0 24 -138 0 -182 -192 0 144c0,8 3,15 8,18 6,4 15,6 27,6l20 0 0 24 -208 0 0 -24 19 0c12,0 21,-2 27,-6 6,-4 9,-10 9,-18l0 -350c0,-9 -3,-15 -9,-19 -6,-4 -15,-6 -27,-6l-19 0 0 -24 208 0 0 24 -20 0c-12,0 -21,2 -27,6 -5,4 -8,10 -8,19l0 150 171 -152c4,-4 5,-7 5,-10 0,-4 -2,-7 -7,-9 -4,-3 -10,-4 -16,-4l-9 0 0 -24 146 0 0 24 -16 0c-14,0 -25,5 -35,14l-179 159 182 193c21,22 41,33 59,33l19 0zm502 0l0 24 -195 0 0 -24 12 0c10,0 17,-1 21,-4 4,-3 6,-7 6,-13 0,-6 -2,-13 -5,-21l-22 -61 -170 0 -25 67c-1,4 -2,8 -2,11 0,7 3,12 9,16 5,3 12,5 19,5l14 0 0 24 -154 0 0 -24 10 0c9,0 18,-2 26,-6 9,-4 15,-10 18,-17l152 -387 72 -26 165 414c3,7 8,13 14,17 7,3 14,5 22,5l13 0zm-196 -133l-71 -194 -72 194 143 0zm421 163c-77,0 -135,-20 -174,-61 -39,-40 -59,-97 -59,-169 0,-71 20,-128 59,-168 39,-41 97,-61 174,-61 78,0 136,20 175,61 39,40 59,97 59,168 0,72 -20,129 -59,169 -39,41 -97,61 -175,61zm-1 -36c44,0 78,-17 101,-51 23,-34 35,-82 35,-143 0,-60 -12,-108 -35,-142 -23,-34 -57,-51 -101,-51 -42,0 -75,17 -98,51 -23,34 -35,82 -35,142 0,61 12,109 35,143 23,34 56,51 98,51z"/>
  <path class="fil0" d="M5639 1511l0 16 -130 0 0 -16 8 0c7,0 13,-1 17,-4 4,-2 6,-6 6,-12l0 -112c0,-27 -13,-41 -38,-41 -8,0 -16,2 -24,7 -8,4 -15,12 -20,22 -6,10 -8,23 -8,38l0 86c0,6 2,10 6,12 3,3 9,4 16,4l8 0 0 16 -129 0 0 -16 11 0c7,0 13,-1 17,-4 4,-2 6,-6 6,-12l0 -128c0,-8 -4,-13 -12,-13 -2,0 -5,1 -10,3l-4 -13 77 -26 14 0 0 34c6,-11 17,-19 30,-26 14,-6 28,-9 44,-9 26,0 46,5 60,16 13,11 20,26 20,45l0 117c0,6 2,10 6,12 4,3 10,4 18,4l11 0zm79 20c-19,0 -34,-4 -46,-12 -11,-8 -17,-20 -17,-34 0,-22 11,-40 34,-54 23,-13 58,-23 104,-30l0 -18c0,-14 -4,-25 -12,-32 -8,-7 -19,-10 -33,-10 -11,0 -20,2 -28,6 -9,4 -13,8 -13,13 0,1 1,4 1,7 1,3 2,5 2,7 0,4 -3,7 -7,11 -4,4 -9,5 -16,5 -8,0 -14,-2 -18,-6 -4,-5 -6,-11 -6,-18 0,-15 9,-28 27,-36 18,-9 42,-13 71,-13 30,0 54,6 71,19 18,12 26,29 26,50l0 109c0,5 1,9 3,11 2,2 5,3 9,3 4,0 10,-1 17,-3l0 11c-6,5 -13,8 -22,10 -9,3 -18,4 -27,4 -12,0 -22,-2 -31,-6 -8,-4 -12,-11 -12,-20l0 -5c-10,12 -22,20 -36,24 -14,5 -27,7 -41,7zm32 -24c8,0 16,-3 24,-8 9,-5 15,-12 19,-19l0 -61c-25,7 -44,16 -57,27 -12,11 -18,22 -18,34 0,8 3,15 9,20 5,5 13,7 23,7zm148 103l11 0c8,0 14,-2 18,-4 4,-3 6,-7 6,-12l0 -227c0,-8 -4,-13 -12,-13 -2,0 -5,1 -11,3l-4 -13 77 -26 14 0 0 29c9,-11 19,-19 31,-23 13,-5 25,-7 38,-7 29,0 52,9 69,26 17,18 26,43 26,76 0,40 -9,68 -28,86 -18,17 -45,26 -80,26 -12,0 -23,-2 -33,-7 -11,-4 -18,-10 -23,-17l0 86c0,6 2,10 6,12 4,3 10,5 18,5l9 0 0 16 -132 0 0 -16zm147 -102c35,0 53,-29 53,-87 0,-27 -5,-48 -13,-61 -9,-13 -22,-20 -41,-20 -7,0 -14,3 -21,7 -7,4 -13,10 -18,18 -5,8 -8,17 -8,28l0 63c0,15 5,27 13,37 9,10 20,15 35,15zm210 -238l53 -53c8,-10 17,-15 27,-15 7,0 12,2 16,6 3,4 5,8 5,13 0,5 -2,9 -5,13 -4,5 -9,9 -16,13l-69 40 -11 -17zm51 261c-40,0 -71,-9 -92,-27 -21,-18 -31,-45 -31,-80 0,-35 10,-61 31,-80 21,-18 52,-27 92,-27 40,0 70,9 91,27 21,19 32,45 32,80 0,35 -11,62 -32,80 -21,18 -51,27 -91,27zm0 -23c18,0 32,-7 43,-21 10,-15 15,-36 15,-63 0,-27 -5,-48 -15,-62 -11,-14 -25,-22 -43,-22 -19,0 -33,8 -43,22 -11,14 -16,35 -16,62 0,27 5,48 16,63 10,14 24,21 43,21zm215 -225c-10,0 -18,-3 -24,-9 -6,-6 -9,-14 -9,-23 0,-10 3,-18 9,-24 6,-6 14,-9 24,-9 10,0 18,3 24,10 6,6 9,13 9,23 0,9 -3,17 -9,23 -6,6 -14,9 -24,9zm-77 297c13,-5 24,-12 31,-21 7,-9 11,-19 13,-30 3,-11 4,-25 4,-41l0 -121c0,-8 -4,-13 -13,-13 -1,0 -5,1 -10,3l-4 -13 77 -26 14 0 0 166c0,66 -37,102 -110,108l-2 -12zm417 -49c-19,0 -35,-2 -47,-8 -13,-5 -22,-13 -29,-22l-16 26 -29 0 0 -265c0,-8 -4,-13 -12,-13 -2,0 -6,1 -11,3l-3 -14 76 -25 14 0 0 133c8,-10 18,-18 31,-22 12,-5 24,-7 36,-7 30,0 53,9 70,27 18,18 27,43 27,76 0,40 -9,68 -28,85 -18,18 -45,26 -79,26zm-8 -23c34,0 51,-28 51,-86 0,-27 -4,-48 -13,-61 -9,-14 -22,-21 -41,-21 -7,0 -14,3 -21,7 -7,4 -13,10 -18,18 -5,8 -7,17 -7,27l0 59c0,16 4,29 13,40 9,12 21,17 36,17zm264 23c-40,0 -71,-9 -92,-27 -21,-18 -31,-45 -31,-80 0,-35 10,-61 31,-80 21,-18 52,-27 92,-27 40,0 70,9 91,27 21,19 32,45 32,80 0,35 -11,62 -32,80 -21,18 -51,27 -91,27zm0 -23c18,0 32,-7 43,-21 10,-15 16,-36 16,-63 0,-27 -6,-48 -16,-62 -11,-14 -25,-22 -43,-22 -18,0 -33,8 -43,22 -11,14 -16,35 -16,62 0,27 5,48 16,63 10,14 25,21 43,21zm359 -191c10,0 19,2 25,7 7,4 11,10 11,16 0,7 -2,12 -6,15 -3,4 -8,6 -15,6 -4,0 -7,-1 -8,-3 -2,-1 -4,-3 -6,-7 -2,-3 -4,-5 -6,-7 -3,-2 -6,-3 -11,-3 -3,0 -8,2 -14,4 10,12 15,26 15,42 0,23 -8,40 -26,52 -17,11 -41,17 -73,17 -18,0 -35,-2 -49,-6 -7,6 -10,11 -10,16 0,5 2,8 6,11 4,3 10,4 17,4l80 0c21,0 37,5 50,14 13,9 20,21 20,38 0,22 -10,38 -31,51 -20,12 -48,18 -86,18 -32,0 -56,-4 -73,-13 -17,-10 -26,-23 -26,-40 0,-17 11,-29 33,-36 -18,-6 -27,-17 -27,-33 0,-14 9,-26 28,-38 -21,-12 -31,-31 -31,-55 0,-22 8,-40 26,-52 17,-12 41,-18 73,-18 29,0 52,5 69,15 13,-10 28,-15 45,-15zm-114 118c12,0 21,-5 27,-14 6,-8 9,-20 9,-34 0,-14 -3,-26 -9,-34 -6,-9 -15,-13 -27,-13 -12,0 -21,4 -27,13 -6,8 -9,20 -9,34 0,14 3,26 9,34 6,9 15,14 27,14zm-39 87c-6,3 -11,7 -14,12 -3,6 -4,10 -4,15 0,10 5,18 15,24 10,5 23,8 41,8 18,0 32,-3 43,-9 10,-6 15,-15 15,-26 0,-9 -3,-14 -9,-18 -6,-4 -16,-6 -31,-6l-56 0zm254 -252l54 -53c8,-10 17,-15 26,-15 7,0 13,2 16,6 4,4 6,8 6,13 0,5 -2,9 -6,13 -3,5 -8,9 -15,13l-69 40 -12 -17zm51 261c-40,0 -70,-9 -91,-27 -21,-18 -32,-45 -32,-80 0,-35 11,-61 32,-80 21,-18 51,-27 91,-27 40,0 71,9 92,27 21,19 31,45 31,80 0,35 -10,62 -31,80 -21,18 -52,27 -92,27zm0 -23c18,0 33,-7 43,-21 11,-15 16,-36 16,-63 0,-27 -5,-48 -16,-62 -10,-14 -25,-22 -43,-22 -18,0 -32,8 -43,22 -10,14 -15,35 -15,62 0,27 5,48 15,63 11,14 25,21 43,21zm484 -187l0 16 -6 0c-5,0 -10,2 -15,4 -4,2 -8,6 -9,11l-54 175 -50 0 -39 -154 -46 154 -50 0 -48 -168c-2,-8 -5,-14 -7,-17 -3,-3 -7,-5 -13,-5l-8 0 0 -16 108 0 0 16 -8 0c-12,0 -18,4 -18,12 0,2 0,3 1,5l32 122 44 -155 45 0 45 159 33 -124c0,-3 1,-5 1,-6 0,-4 -2,-7 -5,-10 -3,-2 -7,-3 -11,-3l-8 0 0 -16 86 0z"/>
  <line class="fil1 str0" x1="5277" y1="1419" x2="3483" y2= "1419" />
  <line class="fil1 str0" x1="9980" y1="1419" x2="8186" y2= "1419" />
  <g id="_2619402244704">
   <path class="fil2" d="M1257 1984c-2,-19 17,-39 24,-57 8,-19 17,-45 21,-64 12,-48 10,-126 16,-139l3 -6c5,-7 80,-5 90,-3 28,42 1,149 -6,199 -3,19 -1,34 -11,48 -5,8 -20,22 -31,25 -21,5 -89,5 -106,-3zm689 -415c-4,24 -6,26 -16,43 -39,61 -28,183 -73,222 -11,9 -22,14 -34,22 -10,8 -26,16 -39,22 -19,9 -29,19 -75,41 -38,17 -141,38 -187,49 -14,3 -35,6 -52,2 -41,-10 -15,-52 -7,-80 32,-111 13,-86 5,-145 -3,-26 1,-29 21,-37 16,-7 9,-5 17,-13 18,-16 7,11 82,-67 45,-47 57,-78 150,-83 47,-2 123,1 176,0 26,0 37,-3 32,24zm-920 163c52,0 94,1 146,-3 23,-1 59,-7 79,-3 22,43 -15,217 -55,240 -12,7 -91,5 -109,5 -47,-2 -118,-8 -154,-30 -59,-35 -88,-39 -125,-120 -23,-48 -30,-41 -30,-109 0,-35 -1,-44 10,-72 10,-27 44,-82 71,-92 46,-16 21,21 13,34 -27,42 -12,97 20,119 16,11 37,17 58,23 34,9 40,8 76,8zm1206 -55c-15,0 -24,-1 -29,-12 -18,-29 57,-32 42,-79 -22,-10 -22,-1 -44,12 -14,8 -28,18 -37,30 -39,58 25,126 133,112 19,-2 38,-6 57,-11 53,-14 86,-41 124,-78 60,-58 49,-195 60,-213 7,-11 29,-22 38,-29 13,-10 26,-18 44,-25 86,-34 81,121 77,182 -3,54 -30,107 -57,147 -12,18 -45,58 -64,72 -12,10 -28,16 -39,28 -23,22 -51,38 -85,51 -105,40 -285,65 -396,30 -17,-6 -32,-14 -46,-21 -54,-26 -65,-68 -54,-132 10,-58 31,-154 77,-187 18,-13 31,-7 57,-9 54,-4 122,-10 174,-23 12,-4 101,-25 106,-24 10,21 4,50 -7,66 -38,57 -80,49 -86,78 -5,31 12,35 -45,35zm123 -36c0,-16 9,-14 30,-47 28,-45 24,-35 33,-88 3,-16 2,-19 14,-25 13,-5 51,-29 60,-8 15,36 -13,76 -21,95 -6,14 -6,16 -15,27 -17,19 -73,66 -101,46zm-1422 -467c3,18 4,76 44,46 40,-28 36,-31 76,-32 23,0 46,-1 55,17 -2,32 -66,37 -46,88 41,17 39,-33 83,-54 18,-8 35,8 44,19 13,16 14,29 16,56 1,27 2,41 -13,57 -48,48 -91,4 -153,-21 -17,-6 -34,-11 -51,-18 -40,-16 -103,-58 -134,-82 -10,-8 -26,-26 -31,-39 -32,-82 10,-57 52,-51 20,3 42,8 58,14zm876 294c-1,-23 21,-28 35,-41 14,-13 63,-68 71,-88 22,-55 16,-167 -9,-210 -25,-42 -73,-46 -118,-35 -37,9 -92,24 -113,45 -14,15 -22,21 -36,43 -25,40 -6,49 -26,55 -31,8 -121,4 -91,-57 35,-72 114,-112 193,-126 46,-8 88,-22 135,-23 45,-1 104,5 139,21 50,21 54,39 80,80 21,36 28,88 19,135 -6,30 -13,36 -19,60 -9,34 -34,76 -60,101 -7,7 -35,32 -46,36 -14,5 -132,7 -154,4zm981 -1136c8,3 10,11 13,21 2,9 4,18 6,27 11,49 24,140 19,187 -3,29 -7,32 -21,49 -11,11 -16,27 -29,41 -65,71 -46,81 -134,142 -44,31 -11,25 -104,68 -26,11 -48,25 -78,28 -21,3 -37,6 -53,17 -35,22 -35,78 53,47 19,-7 75,-37 94,-49 11,-7 17,-12 31,-17 15,-7 51,-27 61,-36l164 -173c9,-13 10,-18 31,-19 16,22 16,63 10,97 -12,59 -64,88 -110,120 -46,32 -85,67 -135,95 -26,15 -92,45 -121,52 -15,4 -29,9 -44,14 -34,11 -68,3 -83,32 0,30 28,35 57,33 37,-2 47,-6 76,-18 82,-34 114,-40 183,-95l125 -109c58,-56 50,81 -22,135 -28,22 -60,44 -93,62 -26,13 -57,42 -101,56 -15,5 -24,7 -38,14 -13,6 -26,6 -42,13 -45,17 -137,23 -133,76 12,26 92,14 116,7 84,-25 145,-75 213,-121 8,-5 15,-7 23,-13 12,-8 22,-22 30,-26 14,-7 6,-2 11,-1 1,0 2,1 2,1 14,4 -12,35 -16,44 -15,28 -32,56 -55,78 -15,14 -24,19 -39,30 -53,42 -139,106 -202,135 -49,23 -100,39 -156,47 -35,5 -223,34 -244,26 0,-23 48,-59 65,-123 31,-112 20,-213 -57,-300 -28,-30 -88,-59 -131,-63 -108,-11 -224,14 -318,60 -58,29 -121,88 -139,152 -35,121 161,146 192,99 10,-15 4,-26 6,-44 3,-27 33,-33 53,-43 22,-10 44,-21 73,-23 39,-4 55,-3 64,31 29,105 -36,206 -132,242 -68,25 -82,32 -166,23 -89,-10 -173,-17 -261,-30 -15,-2 -28,-3 -43,-5 -9,-1 -12,-1 -20,-4 -29,-9 -9,-31 -3,-55 4,-15 9,-42 9,-58 1,-31 -19,-75 -33,-96 -6,-8 -26,-25 -33,-31 -11,-9 -27,-17 -40,-27 -47,-36 -158,-41 -218,-45 -21,-2 -35,-7 -55,-9 -72,-9 -43,-32 -16,-57l34 -32c12,-10 27,-18 34,-34 5,-12 2,-43 -3,-57 -8,-23 -11,-27 -3,-55 4,-16 10,-35 20,-46 30,-32 78,-51 115,-78 15,-11 23,-24 35,-33 13,-9 29,-17 27,-39 -4,-40 -52,-38 -34,-86 12,-33 25,-61 43,-90 15,-25 34,-54 54,-77 17,-20 49,-47 69,-64 66,-57 180,-96 261,-129 41,-17 112,-34 155,-46 29,-8 76,-18 107,-23 39,-6 82,-3 124,-7 85,-7 170,5 255,4 33,-1 152,20 181,45 8,8 6,8 18,16 23,13 38,50 49,81 26,69 -5,151 -37,209 -9,16 -18,26 -26,40 -10,15 -16,28 -28,39 -8,9 -24,20 -26,37 -2,20 15,28 35,29 35,1 96,4 123,-10 41,-22 81,-123 93,-167 34,-116 -18,-221 23,-235 57,-19 50,23 49,70 -2,62 -15,167 -41,219 -5,11 -5,14 -9,25l-32 68c-11,22 -43,55 -67,63 -9,4 -13,7 -21,9 -21,8 -64,4 -71,30 -5,20 13,30 32,30 27,0 32,-11 50,-18 20,-9 67,-38 81,-53 58,-64 38,-49 77,-120 23,-43 32,-108 41,-156 16,-92 -27,-214 77,-165 39,19 28,52 22,95 -6,53 -21,112 -33,164 -12,54 -81,175 -119,208 -26,24 -78,78 -106,91 -31,14 -85,18 -92,39 -6,19 10,36 25,40 22,6 72,-26 90,-37 31,-20 135,-128 165,-163l27 -39c18,-27 29,-60 42,-92 13,-31 19,-69 27,-103 5,-22 8,-32 10,-56 2,-18 3,-43 16,-52zm-1452 1204c-34,32 -187,45 -245,38 -18,-2 -115,-24 -118,-24 -26,5 -28,49 44,72 74,23 180,11 260,0 67,-10 60,-1 114,-65 8,-9 8,-9 22,-14 26,-10 36,-7 66,-6 35,1 119,-5 77,49 -19,24 -58,46 -88,57 -39,13 -162,-6 -268,14 -59,11 -210,27 -264,6 -17,-6 -32,-17 -36,-34 -7,-33 11,-31 23,-49 18,-27 1,-33 24,-49 14,-10 32,-21 23,-44 -18,-39 -156,-36 -216,24 -53,54 -71,119 -71,219 0,47 6,84 24,120l44 65c49,58 126,103 204,121 84,20 169,19 256,31 42,6 241,4 281,-3 79,-14 169,-19 239,-49 53,-23 109,-60 157,-94 25,-17 23,-31 58,12 18,22 49,39 76,50 16,7 28,15 44,20 62,20 168,7 234,-3 71,-10 138,-35 197,-59 28,-11 58,-28 83,-44 79,-50 139,-119 164,-220 15,-57 29,-175 16,-235 -10,-45 -16,-56 -35,-92 -24,-47 8,-53 28,-80 37,-49 78,-96 100,-158 47,-133 26,-78 51,-203 23,-114 20,-356 -11,-469 -20,-71 -33,-135 -58,-199 -14,-33 -31,-55 -57,-72 -37,-24 -49,-24 -102,-24 -51,0 -68,0 -113,14 -96,31 -86,76 -67,169 7,33 4,84 -2,116 -9,47 -30,97 -65,126 -11,9 -24,24 -46,20 -16,-46 53,-73 68,-201 9,-69 -20,-178 -51,-223 -17,-25 -52,-46 -79,-58 -25,-10 -80,-26 -107,-32 -16,-4 -48,-5 -65,-6 -21,-1 -39,-5 -61,-7 -298,-15 -438,-7 -711,113 -36,16 -61,31 -89,50 -29,21 -55,36 -83,57 -32,26 -42,33 -75,64l-49 51c-6,9 -10,15 -14,22 -25,39 -83,162 -43,207 51,57 -24,53 -48,61 -70,23 -112,85 -119,156 -7,93 13,89 -21,112l-52 52c-4,6 -8,16 -12,24 -32,61 -26,189 0,234l65 75c17,16 117,66 135,71 22,6 33,12 52,18 36,11 62,25 105,34l166 43c27,8 41,0 41,29z"/>
   <path class="fil2" d="M547 1372c-11,-17 -27,-20 -51,-14 -19,5 -38,12 -57,17 -46,14 -67,21 -105,48 -33,23 -94,105 -114,147 -2,4 -3,8 -5,12l-12 12c-10,-25 -7,-36 -7,-67 0,-38 1,-38 17,-61 7,-10 6,-15 13,-24 12,-14 27,-28 36,-43 21,-35 66,-71 100,-94 20,-12 31,-17 61,-19 18,-1 45,-7 67,-10 70,-10 68,-58 6,-52 -39,3 -98,8 -130,24 -15,8 -30,21 -45,31 -21,12 -30,20 -44,35 -15,18 -54,82 -78,72 -5,-9 -6,-57 -1,-69 7,-16 27,-31 37,-42 24,-28 60,-42 84,-74 21,-27 64,-45 93,-61 24,-13 26,-15 57,-22 23,-5 51,-4 75,-4 27,0 35,-23 21,-42 -10,-14 -47,-9 -69,-8 -44,1 -94,10 -124,33 -18,13 -24,23 -41,34 -31,22 -62,44 -89,69 -11,12 -23,32 -45,31 -6,-17 4,-55 6,-74 5,-54 14,-73 61,-101 17,-10 31,-26 48,-38 11,-7 58,-60 99,-67l138 -29c22,-4 56,7 70,-12 19,-24 -8,-39 -32,-39 -32,0 -123,9 -152,17 -40,10 -84,28 -113,52 -21,17 -53,36 -69,56 -8,12 -8,17 -28,16 1,-30 12,-55 19,-83 14,-62 31,-51 73,-78 12,-8 12,-14 28,-24 43,-27 89,-48 137,-66 94,-36 95,-15 170,-32 24,-6 59,-21 62,-42 -9,-16 -25,-20 -50,-17 -107,13 -71,8 -178,32 -40,9 -115,36 -142,67 -10,10 -31,25 -46,25 4,-34 11,-64 26,-94 15,-31 41,-38 67,-54 14,-8 15,-6 30,-9 13,-4 6,-3 15,-7 8,-2 11,-2 17,-4 24,-6 28,-16 58,-20 23,-4 45,-14 66,-16 14,-2 148,-12 148,-12 6,-4 3,0 8,-8 6,-11 5,-28 -5,-34 -25,-17 -144,-5 -170,1 -17,5 -34,11 -50,14 -19,4 -34,5 -53,10 -52,14 -76,42 -89,25 -10,-13 6,-43 13,-55 15,-27 60,-60 88,-70 14,-5 45,-15 57,-21 59,-28 144,-23 211,-23 13,0 25,-1 33,-6 8,-5 16,-10 21,-18 -2,-18 -20,-30 -42,-30 -46,1 -104,-3 -148,0 -17,1 -46,22 -59,7 -26,-26 87,-48 101,-50 28,-2 120,-12 137,-24 21,-15 19,-36 -3,-46 -39,-18 -92,8 -132,21 -57,18 -123,31 -163,79 -30,34 -86,75 -105,98 -7,7 -11,13 -18,21l-36 47c-29,51 -29,52 -51,112 -7,20 -13,39 -20,59 -13,41 -30,76 -42,119 -6,21 -15,34 -21,61 -9,44 -27,82 -35,125 -15,72 -22,148 -21,222 0,42 -5,103 -4,161 2,68 7,163 18,226 13,74 44,109 91,152 8,7 15,8 19,21 13,48 -56,8 -70,-3l-44 -38c-34,-34 -38,-54 -50,-111 -9,-48 -20,-94 -20,-144 1,-162 -3,-305 22,-463 8,-50 19,-87 29,-134 11,-47 20,-84 34,-128 6,-20 11,-44 17,-65 8,-29 23,-63 27,-94 7,-46 41,-102 63,-140 9,-18 23,-31 36,-45l42 -37c10,-6 16,-7 25,-15 21,-20 45,-36 69,-55l52 -30c34,-16 78,-37 118,-43 25,-3 44,-12 67,-15 24,-4 48,-5 73,-8 24,-3 54,2 78,-1 27,-2 41,-22 23,-44 -17,-19 -115,-15 -147,-14 -72,0 -136,17 -200,43 -21,8 -40,14 -59,23 -37,17 -65,44 -99,62 -29,16 -63,52 -86,77 -46,48 -68,85 -94,149 -37,93 -30,92 -57,186 -12,43 -23,83 -36,127l-30 131c-9,49 -14,92 -21,143 -14,113 -26,346 -8,462 9,55 17,81 35,128 6,18 15,39 25,54 7,11 28,40 35,47 70,64 127,92 228,94 57,2 164,12 208,-30 10,-10 29,-37 7,-50 -13,-7 -55,1 -72,3 -26,3 -123,8 -130,-25 -7,-34 31,-90 57,-105 15,-9 37,-17 56,-26 9,-5 105,-28 78,-71 -21,-32 -161,27 -190,74 -7,11 -10,17 -19,25 -16,15 -20,36 -32,49 -29,33 -72,-51 -56,-83 9,-19 18,-39 29,-53 22,-33 41,-69 70,-94 34,-30 55,-47 100,-60 38,-11 110,-12 109,-55z"/>
   <path class="fil2" d="M1806 626c-15,107 -23,141 -139,165 -52,11 -98,23 -154,28 -53,4 -183,5 -228,-12 -21,-8 -67,-29 -79,-42 -14,-17 -15,-87 9,-95 42,-15 266,18 313,-20 8,-7 10,-7 18,-13 14,-10 47,-48 58,-63 45,-58 -19,-122 68,-116 12,1 15,5 25,6 19,3 36,-2 69,23 36,27 44,106 40,139zm-222 -115c-6,18 -18,30 -25,42 -16,23 -34,7 -19,-16 11,-15 14,-29 23,-44 14,-24 28,-8 21,18zm-57 -14c-11,24 -26,42 -51,51 -28,10 -52,19 -84,23 -15,1 -97,14 -111,20 -10,5 -8,7 -13,14 -16,18 -29,-2 -19,-19l61 -43c26,-15 44,-22 72,-33 27,-12 51,-17 82,-25 20,-5 83,-30 63,12zm-140 387l3 0c88,0 181,4 268,-17 46,-11 69,-23 99,-46 13,-11 29,-23 38,-36 9,-14 16,-33 31,-41 21,1 20,16 58,15 72,-3 116,-5 174,-44 22,-15 57,-48 68,-77 25,-67 39,-187 27,-259 -9,-58 -5,-72 -37,-112 -74,-96 -139,-92 -247,-92 -19,0 -78,-6 -87,4 -21,21 22,39 41,42 52,9 90,-8 170,14 43,12 82,43 102,84 39,79 -3,228 -34,306 -20,51 -58,54 -116,69 -18,4 -67,9 -83,2 -24,-10 -12,-38 -10,-73 3,-57 -9,-180 -63,-211 -20,-10 -41,-19 -67,-23 -120,-15 -343,42 -439,112 -16,12 -35,29 -50,41 -33,25 -58,73 -70,116 -6,24 -9,59 -6,85 6,54 14,76 80,106 51,24 84,35 150,35z"/>
   <path class="fil2" d="M1385 2c-46,10 -62,15 -74,60 -5,17 7,35 19,42 24,14 30,5 54,1 53,-9 9,6 48,-18 13,-7 30,-16 30,-36 -2,-37 -38,-58 -77,-49z"/>
   <path class="fil2" d="M1076 63c-18,8 -24,9 -36,26 -41,56 -15,86 62,79 48,-4 74,-70 19,-98 -4,-2 -16,-6 -22,-8 -14,-5 -11,-5 -23,1z"/>
   <path class="fil2" d="M1038 883c25,0 44,-11 43,-38 -1,-21 -25,-39 -48,-35 -48,7 -66,73 5,73z"/>
  </g>
  <path class="fil0" d="M3087 220l-26 -44c-1,0 -3,0 -5,0l-33 0 0 44 -29 0 0 -148 62 0c19,0 34,4 44,13 11,9 16,21 16,37 0,12 -3,22 -8,30 -5,8 -12,14 -21,18l32 50 -32 0zm-64 -69l33 0c11,0 19,-2 24,-7 6,-5 9,-12 9,-21 0,-9 -3,-15 -9,-20 -5,-4 -13,-7 -24,-7l-33 0 0 55z"/>
  <path class="fil2" d="M3057 0c80,0 145,65 145,146 0,80 -65,145 -145,145 -81,0 -146,-65 -146,-145 0,-81 65,-146 146,-146zm0 27c65,0 118,53 118,119 0,65 -53,118 -118,118 -66,0 -119,-53 -119,-118 0,-66 53,-119 119,-119z"/>
 </g>
</svg>
