<?xml version="1.0" encoding="UTF-8"?>
<!DOCTYPE svg PUBLIC "-//W3C//DTD SVG 1.1//EN" "http://www.w3.org/Graphics/SVG/1.1/DTD/svg11.dtd">
<!-- Creator: CorelDRAW X7 -->
<svg xmlns="http://www.w3.org/2000/svg" xml:space="preserve" width="161.017mm" height="33.8813mm" version="1.1" style="shape-rendering:geometricPrecision; text-rendering:geometricPrecision; image-rendering:optimizeQuality; fill-rule:evenodd; clip-rule:evenodd"
viewBox="0 0 9560 2012"
 xmlns:xlink="http://www.w3.org/1999/xlink">
 <defs>
  <style type="text/css">
   <![CDATA[
    .str0 {stroke:#FEFEFE;stroke-width:29.6867}
    .fil1 {fill:none}
    .fil2 {fill:white}
    .fil0 {fill:white;fill-rule:nonzero}
   ]]>
  </style>
 </defs>
 <g id="Warstwa_x0020_1">
  <metadata id="CorelCorpID_0Corel-Layer"/>
  <g id="_2419467632144">
   <path class="fil0" d="M3242 858l18 0c12,0 21,-2 27,-5 6,-4 9,-10 9,-17l0 -351c0,-15 -12,-23 -36,-23l-18 0 0 -19 221 0c49,0 84,12 105,35 22,23 32,56 32,98 0,42 -10,74 -32,97 -21,24 -56,35 -105,35l-93 0 0 128c0,14 12,22 36,22l18 0 0 19 -182 0 0 -19zm205 -178c53,0 80,-35 80,-104 0,-70 -27,-104 -80,-104l-77 0 0 208 77 0z"/>
   <path id="1" class="fil0" d="M3947 768c5,19 10,35 15,47 5,12 12,22 21,30 8,8 20,12 34,13l0 19 -58 0c-22,0 -39,-5 -50,-15 -12,-11 -21,-27 -27,-48 -4,-14 -7,-25 -9,-35 -5,-21 -9,-38 -14,-50 -4,-13 -11,-23 -21,-31l-85 0 0 138c0,14 11,22 35,22l19 0 0 19 -183 0 0 -19 18 0c12,0 21,-2 27,-5 6,-4 9,-10 9,-17l0 -351c0,-15 -12,-23 -36,-23l-18 0 0 -19 219 0c49,0 85,11 106,33 22,22 32,53 32,94 0,32 -6,59 -19,79 -13,21 -34,35 -63,43 14,7 23,16 29,28 6,12 12,28 19,48zm-194 -99l74 0c28,0 49,-8 62,-25 13,-16 19,-41 19,-74 0,-32 -6,-57 -19,-74 -13,-16 -34,-24 -62,-24l-74 0 0 197z"/>
   <path id="2" class="fil0" d="M4499 858l0 19 -169 0 0 -19 11 0c10,0 17,-2 21,-5 4,-2 7,-7 7,-13 0,-5 -2,-13 -7,-25l-23 -64 -171 0 -28 76c-1,4 -2,7 -2,10 0,6 3,12 9,15 6,4 13,6 21,6l12 0 0 19 -140 0 0 -19 9 0c9,0 17,-2 26,-6 8,-5 13,-10 16,-16l147 -382 56 -21 156 403c3,7 8,13 15,16 7,4 15,6 23,6l11 0zm-171 -135l-73 -202 -76 202 149 0z"/>
   <path id="3" class="fil0" d="M5082 443l0 19 -10 0c-24,0 -38,8 -42,23l-115 394 -46 0 -96 -287 -104 287 -55 0 -119 -395c-2,-7 -7,-12 -14,-16 -7,-4 -15,-6 -23,-6l-11 0 0 -19 170 0 0 19 -12 0c-9,0 -16,2 -22,5 -5,4 -7,8 -7,14 0,2 0,4 0,5l81 314 95 -269 -15 -47c-3,-7 -8,-12 -15,-16 -7,-4 -14,-6 -22,-6l-12 0 0 -19 161 0 0 19 -12 0c-9,0 -16,2 -22,7 -7,4 -9,9 -7,16l94 315 81 -313c1,-1 1,-3 1,-5 0,-6 -3,-11 -8,-14 -6,-4 -12,-6 -19,-6l-15 0 0 -19 140 0z"/>
   <path id="4" class="fil0" d="M5098 858l19 0c23,0 35,-8 35,-22l0 -351c0,-15 -12,-23 -35,-23l-19 0 0 -19 203 0c134,0 201,72 201,217 0,145 -67,217 -202,217l-202 0 0 -19zm201 -9c42,0 74,-16 96,-49 21,-32 32,-79 32,-140 0,-60 -11,-107 -32,-140 -22,-33 -53,-49 -95,-49l-74 0 0 378 73 0z"/>
   <path id="5" class="fil0" d="M5541 859l250 -387 -151 0c-34,0 -53,27 -57,82l-20 0 0 -111 308 0 0 13 -251 393 175 0c18,0 31,-9 40,-25 8,-16 14,-36 17,-60l19 0 -11 113 -319 0 0 -18z"/>
   <path id="6" class="fil0" d="M5906 858l18 0c24,0 35,-8 35,-22l0 -351c0,-15 -11,-23 -35,-23l-18 0 0 -19 182 0 0 19 -18 0c-24,0 -36,8 -36,23l0 351c0,7 3,13 9,17 6,3 15,5 27,5l18 0 0 19 -182 0 0 -19z"/>
   <path id="7" class="fil0" d="M6745 443l0 19 -10 0c-24,0 -38,8 -42,23l-116 394 -46 0 -96 -287 -103 287 -55 0 -119 -395c-2,-7 -7,-12 -14,-16 -7,-4 -15,-6 -23,-6l-12 0 0 -19 170 0 0 19 -12 0c-9,0 -16,2 -21,5 -5,4 -8,8 -8,14 0,2 1,4 1,5l81 314 95 -269 -16 -47c-2,-7 -7,-12 -14,-16 -7,-4 -15,-6 -22,-6l-12 0 0 -19 161 0 0 19 -12 0c-9,0 -16,2 -23,7 -6,4 -8,9 -6,16l94 315 81 -313c1,-1 1,-3 1,-5 0,-6 -3,-11 -9,-14 -5,-4 -11,-6 -18,-6l-15 0 0 -19 140 0z"/>
   <path id="8" class="fil0" d="M7116 763l-11 114 -345 0 0 -19 18 0c12,0 21,-2 27,-5 6,-4 9,-10 9,-17l0 -351c0,-15 -12,-23 -36,-23l-18 0 0 -19 345 0 0 111 -19 0c-4,-55 -23,-82 -57,-82l-141 0 0 163 103 0c13,0 21,-5 25,-14 4,-10 7,-25 8,-45l17 0 0 147 -17 0c-1,-20 -4,-35 -8,-45 -4,-9 -12,-14 -25,-14l-103 0 0 185 152 0c31,0 50,-29 57,-86l19 0z"/>
   <path id="9" class="fil0" d="M7741 858l0 19 -113 0 -189 -195 0 154c0,14 12,22 36,22l18 0 0 19 -182 0 0 -19 18 0c12,0 21,-2 27,-5 6,-4 9,-10 9,-17l0 -351c0,-15 -12,-23 -36,-23l-18 0 0 -19 182 0 0 19 -18 0c-24,0 -36,8 -36,23l0 152 175 -154c3,-3 4,-6 4,-9 0,-8 -7,-12 -23,-12l-9 0 0 -19 131 0 0 19 -14 0c-7,0 -13,2 -19,4 -5,3 -11,6 -16,11l-181 161 180 188c11,10 20,18 28,24 8,5 17,8 28,8l18 0z"/>
   <path id="10" class="fil0" d="M8213 858l0 19 -169 0 0 -19 11 0c10,0 17,-2 21,-5 4,-2 7,-7 7,-13 0,-5 -2,-13 -7,-25l-23 -64 -171 0 -28 76c-1,4 -2,7 -2,10 0,6 3,12 9,15 6,4 13,6 21,6l12 0 0 19 -140 0 0 -19 9 0c9,0 17,-2 26,-6 8,-5 14,-10 16,-16l148 -382 55 -21 156 403c3,7 8,13 15,16 7,4 15,6 23,6l11 0zm-171 -135l-73 -202 -76 202 149 0z"/>
   <path id="11" class="fil0" d="M8658 858l0 19 -112 0 -189 -195 0 154c0,14 12,22 36,22l18 0 0 19 -182 0 0 -19 18 0c12,0 21,-2 27,-5 6,-4 9,-10 9,-17l0 -351c0,-15 -12,-23 -36,-23l-18 0 0 -19 182 0 0 19 -18 0c-24,0 -36,8 -36,23l0 152 174 -154c4,-3 5,-6 5,-9 0,-8 -8,-12 -23,-12l-10 0 0 -19 132 0 0 19 -14 0c-7,0 -14,2 -19,4 -5,3 -11,6 -16,11l-181 161 180 188c11,10 20,18 28,24 8,5 17,8 27,8l18 0z"/>
   <path id="12" class="fil0" d="M9131 858l0 19 -170 0 0 -19 12 0c10,0 17,-2 21,-5 4,-2 6,-7 6,-13 0,-5 -2,-13 -6,-25l-23 -64 -171 0 -28 76c-1,4 -2,7 -2,10 0,6 3,12 9,15 5,4 12,6 21,6l11 0 0 19 -140 0 0 -19 10 0c8,0 17,-2 25,-6 9,-5 14,-10 17,-16l147 -382 56 -21 156 403c3,7 8,13 15,16 7,4 15,6 22,6l12 0zm-171 -135l-74 -202 -75 202 149 0z"/>
   <path id="13" class="fil0" d="M9343 883c-71,0 -126,-19 -162,-59 -37,-39 -56,-94 -56,-164 0,-70 19,-125 56,-164 36,-39 91,-59 162,-59 71,0 125,20 162,59 37,39 55,94 55,164 0,70 -18,125 -55,164 -37,40 -91,59 -162,59zm-1 -30c47,0 82,-17 107,-51 24,-34 36,-82 36,-142 0,-60 -12,-108 -36,-142 -25,-35 -60,-52 -107,-52 -46,0 -82,17 -106,52 -24,34 -36,82 -36,142 0,60 12,108 36,142 24,34 60,51 106,51z"/>
   <path class="fil0" d="M5386 1471l0 12 -110 0 0 -12 8 0c6,0 11,-2 15,-4 4,-2 6,-6 6,-10l0 -114c0,-15 -3,-26 -10,-33 -7,-7 -18,-11 -31,-11 -9,0 -18,3 -26,8 -9,4 -16,12 -22,22 -6,10 -8,22 -8,36l0 92c0,4 2,8 6,10 4,2 9,4 15,4l8 0 0 12 -110 0 0 -12 9 0c7,0 12,-2 17,-4 4,-2 6,-6 6,-10l0 -136c0,-7 -4,-10 -10,-10 -3,0 -7,1 -12,3l-3 -11 62 -22 12 0 0 34c6,-11 16,-19 29,-26 13,-6 27,-10 42,-10 25,0 43,6 56,16 13,11 19,25 19,43l0 119c0,4 2,8 6,10 5,2 10,4 17,4l9 0z"/>
   <path id="1" class="fil0" d="M5464 1488c-18,0 -32,-4 -43,-12 -10,-9 -15,-20 -15,-33 0,-22 11,-39 32,-52 22,-13 56,-23 101,-29l0 -21c0,-14 -4,-24 -13,-31 -8,-8 -20,-11 -34,-11 -11,0 -20,2 -29,6 -9,4 -13,8 -13,13 0,2 0,4 1,7 0,3 1,5 1,6 0,4 -2,8 -5,12 -3,3 -7,5 -14,5 -5,0 -10,-2 -13,-6 -4,-4 -6,-10 -6,-17 0,-14 8,-26 25,-34 17,-8 38,-12 63,-12 28,0 49,6 64,18 15,12 22,29 22,50l0 109c0,9 4,14 11,14 4,0 9,-1 15,-4l0 9c-5,4 -11,7 -18,9 -8,3 -15,4 -23,4 -9,0 -17,-2 -23,-5 -7,-4 -10,-9 -10,-17l0 -10c-11,12 -23,20 -37,25 -13,4 -26,7 -39,7zm23 -20c10,0 19,-3 30,-9 10,-7 17,-14 22,-22l0 -60c-28,6 -49,15 -63,26 -15,11 -22,23 -22,36 0,9 3,16 9,21 6,6 14,8 24,8z"/>
   <path id="2" class="fil0" d="M5628 1566l9 0c7,0 13,-1 17,-3 4,-2 6,-6 6,-11l0 -231c0,-7 -4,-10 -10,-10 -3,0 -6,1 -12,3l-3 -11 62 -22 12 0 0 31c8,-12 18,-20 30,-25 12,-5 25,-8 39,-8 27,0 49,9 66,26 16,17 24,42 24,73 0,39 -9,67 -26,84 -17,17 -42,26 -75,26 -13,0 -25,-3 -36,-8 -10,-5 -18,-12 -22,-20l0 92c0,5 2,8 6,11 4,2 9,3 16,3l8 0 0 13 -111 0 0 -13zm134 -97c39,0 58,-30 58,-88 0,-28 -5,-49 -14,-62 -10,-14 -24,-21 -45,-21 -7,0 -15,3 -23,7 -9,5 -15,12 -21,20 -5,9 -8,19 -8,30l0 60c0,15 4,28 14,38 9,11 23,16 39,16z"/>
   <path id="3" class="fil0" d="M5959 1238l50 -49c8,-7 15,-11 22,-11 5,0 9,1 12,4 3,3 5,7 5,11 0,7 -6,14 -17,20l-63 37 -9 -12zm45 250c-36,0 -64,-9 -84,-27 -19,-18 -29,-44 -29,-78 0,-33 10,-59 29,-77 20,-18 48,-27 84,-27 35,0 63,9 83,27 19,18 29,44 29,77 0,34 -10,60 -29,78 -20,18 -48,27 -83,27zm0 -19c19,0 35,-7 46,-22 11,-15 17,-36 17,-64 0,-27 -6,-48 -17,-62 -11,-15 -27,-23 -46,-23 -20,0 -36,8 -47,23 -11,14 -17,35 -17,62 0,28 6,49 17,64 11,15 27,22 47,22z"/>
   <path id="4" class="fil0" d="M6201 1245c-8,0 -15,-2 -20,-7 -5,-5 -7,-11 -7,-19 0,-8 2,-14 7,-19 5,-5 12,-8 20,-8 8,0 15,3 20,8 5,5 8,11 8,19 0,8 -3,14 -8,19 -6,5 -12,7 -20,7zm-66 287c13,-5 23,-12 29,-20 6,-8 10,-18 12,-28 2,-11 3,-24 3,-41l0 -122c0,-7 -4,-10 -10,-10 -3,0 -6,1 -12,3l-3 -11 62 -22 12 0 0 159c0,30 -7,54 -22,71 -14,16 -37,27 -68,31l-3 -10z"/>
   <path id="5" class="fil0" d="M6515 1488c-18,0 -33,-3 -45,-9 -13,-6 -22,-14 -28,-24l-13 28 -23 0 0 -265c0,-7 -3,-10 -10,-10 -2,0 -6,1 -11,3l-3 -11 61 -21 12 0 0 132c7,-11 17,-19 29,-24 13,-5 26,-8 38,-8 28,0 51,9 67,26 17,18 26,43 26,75 0,38 -9,66 -26,83 -17,16 -42,25 -74,25zm-6 -19c38,0 57,-29 57,-87 0,-56 -20,-84 -59,-84 -8,0 -16,3 -24,7 -8,5 -15,11 -20,20 -5,8 -8,17 -8,28l0 57c0,10 2,20 6,29 5,8 11,16 19,21 8,6 18,9 29,9z"/>
   <path id="6" class="fil0" d="M6753 1488c-36,0 -64,-9 -83,-27 -20,-18 -30,-44 -30,-78 0,-33 10,-59 30,-77 19,-18 47,-27 83,-27 36,0 63,9 83,27 20,18 29,44 29,77 0,34 -9,60 -29,78 -20,18 -47,27 -83,27zm0 -19c20,0 35,-7 46,-22 12,-15 17,-36 17,-64 0,-27 -5,-48 -17,-62 -11,-15 -26,-23 -46,-23 -20,0 -35,8 -47,23 -11,14 -17,35 -17,62 0,28 6,49 17,64 12,15 27,22 47,22z"/>
   <path id="7" class="fil0" d="M7083 1279c9,0 16,2 21,6 6,4 9,8 9,14 0,5 -2,9 -5,12 -2,3 -6,4 -12,4 -3,0 -5,0 -7,-1 -2,-2 -4,-4 -5,-6 -2,-3 -4,-5 -6,-7 -1,-1 -4,-2 -9,-2 -4,0 -9,2 -15,5 11,11 16,26 16,43 0,21 -8,38 -24,49 -16,12 -38,18 -66,18 -18,0 -33,-3 -47,-7 -7,5 -11,11 -11,18 0,5 2,9 7,12 4,3 11,5 19,5l72 0c19,0 34,4 46,12 12,8 18,19 18,35 0,20 -10,36 -28,47 -19,11 -45,16 -79,16 -28,0 -50,-4 -66,-13 -16,-8 -24,-21 -24,-37 0,-17 12,-29 34,-36 -10,-3 -17,-7 -22,-13 -4,-6 -7,-12 -7,-19 0,-12 9,-23 26,-35 -19,-11 -28,-29 -28,-52 0,-22 7,-38 23,-50 16,-12 38,-18 67,-18 26,0 47,5 62,15 12,-10 26,-15 41,-15zm-103 117c14,0 24,-5 31,-14 7,-9 11,-21 11,-35 0,-15 -4,-26 -11,-36 -7,-9 -17,-13 -31,-13 -14,0 -25,4 -32,13 -7,10 -10,21 -10,36 0,14 3,26 10,35 7,9 18,14 32,14zm-34 77c-9,3 -15,7 -18,13 -4,6 -6,11 -6,16 0,11 5,19 16,25 10,5 24,8 41,8 19,0 34,-3 45,-10 11,-6 17,-15 17,-27 0,-9 -3,-15 -10,-19 -6,-4 -17,-6 -31,-6l-54 0z"/>
   <path id="8" class="fil0" d="M7180 1238l50 -49c8,-7 15,-11 22,-11 5,0 9,1 12,4 3,3 4,7 4,11 0,7 -5,14 -16,20l-63 37 -9 -12zm44 250c-36,0 -63,-9 -83,-27 -19,-18 -29,-44 -29,-78 0,-33 10,-59 29,-77 20,-18 47,-27 83,-27 36,0 64,9 83,27 20,18 30,44 30,77 0,34 -10,60 -30,78 -19,18 -47,27 -83,27zm0 -19c20,0 35,-7 47,-22 11,-15 17,-36 17,-64 0,-27 -6,-48 -17,-62 -12,-15 -27,-23 -47,-23 -19,0 -35,8 -46,23 -12,14 -17,35 -17,62 0,28 5,49 17,64 11,15 27,22 46,22z"/>
   <path id="9" class="fil0" d="M7674 1284l0 12 -6 0c-5,0 -9,1 -14,3 -4,2 -7,6 -9,10l-51 174 -38 0 -43 -158 -47 158 -38 0 -46 -163c-1,-2 -2,-5 -3,-10 -2,-5 -4,-8 -7,-10 -3,-3 -7,-4 -12,-4l-6 0 0 -12 92 0 0 12 -7 0c-12,0 -17,4 -17,11 0,1 0,3 0,3l34 133 46 -159 36 0 46 161 34 -133c1,-2 1,-4 1,-5 0,-4 -1,-6 -4,-8 -3,-2 -7,-3 -12,-3l-7 0 0 -12 78 0z"/>
   <line class="fil1 str0" x1="4988" y1="1379" x2="3244" y2= "1379" />
   <line class="fil1 str0" x1="9557" y1="1379" x2="7813" y2= "1379" />
  </g>
  <g id="_2419467633616">
   <g>
    <path class="fil2" d="M1221 1927c-2,-18 17,-38 24,-55 7,-19 16,-43 20,-62 11,-47 10,-122 15,-135l4 -6c4,-7 77,-5 87,-3 27,41 1,145 -6,193 -3,19 -1,33 -10,47 -6,8 -20,21 -31,24 -20,6 -86,5 -103,-3zm670 -403c-5,24 -6,25 -16,42 -38,59 -27,178 -70,215 -11,10 -22,14 -34,23 -10,7 -25,15 -38,21 -18,9 -28,18 -72,39 -37,17 -138,38 -182,48 -14,3 -34,6 -50,2 -41,-10 -16,-50 -8,-78 32,-108 13,-84 6,-141 -4,-25 0,-28 20,-36 15,-6 8,-5 17,-13 16,-15 6,11 79,-65 44,-45 55,-75 146,-80 46,-2 119,1 171,0 24,0 36,-3 31,23zm-894 159c50,0 91,0 141,-3 23,-2 58,-7 77,-3 22,41 -14,211 -53,233 -12,7 -89,5 -106,5 -46,-2 -114,-7 -150,-29 -57,-34 -85,-38 -121,-117 -22,-46 -29,-40 -29,-106 0,-34 -1,-42 10,-70 9,-26 43,-80 69,-89 44,-16 20,20 12,33 -26,41 -12,94 19,115 16,11 37,17 57,23 33,9 39,8 74,8zm1172 -54c-15,0 -24,-1 -29,-11 -17,-29 56,-31 41,-77 -22,-10 -22,-1 -43,11 -13,8 -27,18 -35,30 -39,56 24,123 129,109 18,-3 37,-6 55,-11 51,-13 84,-40 121,-76 58,-56 47,-189 58,-207 7,-10 28,-21 36,-28 13,-10 26,-17 43,-24 84,-34 79,117 75,177 -3,51 -29,103 -55,142 -12,18 -44,57 -62,71 -12,8 -28,15 -39,26 -21,22 -48,37 -82,50 -102,38 -277,63 -384,29 -17,-5 -32,-14 -45,-20 -53,-26 -63,-66 -53,-129 10,-55 30,-149 75,-181 17,-13 30,-7 55,-9 53,-4 119,-9 169,-23 13,-3 99,-23 104,-23 10,21 3,49 -7,64 -38,55 -78,49 -83,76 -6,31 10,34 -44,34zm119 -35c0,-15 8,-13 29,-46 27,-43 23,-34 32,-85 3,-16 2,-19 14,-24 12,-5 49,-28 58,-8 14,35 -12,74 -21,92 -5,14 -5,16 -14,27 -16,18 -71,64 -98,44zm-1381 -454c2,18 3,74 43,46 38,-28 34,-31 73,-31 22,-1 44,-2 54,16 -3,31 -64,36 -45,86 40,15 37,-33 80,-53 18,-8 35,8 43,18 12,16 13,28 15,55 2,26 3,39 -12,55 -46,47 -89,4 -149,-20 -16,-7 -32,-11 -50,-18 -38,-15 -99,-56 -129,-79 -10,-8 -25,-26 -30,-38 -32,-80 10,-56 50,-50 20,3 41,8 57,13zm851 287c-2,-23 20,-28 34,-41 13,-12 61,-66 68,-85 22,-54 16,-162 -9,-204 -24,-41 -70,-45 -114,-34 -36,9 -90,23 -110,44 -14,14 -21,20 -35,41 -24,40 -5,48 -25,53 -30,8 -117,5 -88,-55 34,-69 111,-108 187,-122 44,-8 86,-22 132,-23 43,-1 100,6 134,21 49,21 53,38 78,78 21,34 27,86 18,131 -6,29 -12,35 -18,58 -9,33 -33,74 -58,98 -7,7 -34,31 -44,35 -14,6 -129,7 -150,5zm953 -1105c7,4 9,11 12,21 2,9 4,17 6,27 10,47 24,135 19,181 -3,28 -7,31 -21,47 -10,12 -16,27 -28,40 -63,70 -45,79 -130,138 -43,30 -11,24 -102,66 -24,11 -46,24 -75,28 -20,2 -36,6 -52,16 -34,21 -33,76 52,46 19,-7 73,-36 91,-48 11,-7 17,-11 30,-17 15,-7 49,-26 59,-35l160 -167c9,-13 10,-18 30,-19 16,22 16,62 9,94 -11,58 -61,85 -106,117 -45,31 -83,65 -132,92 -25,15 -89,44 -117,51 -15,4 -28,8 -43,13 -33,11 -65,4 -81,31 1,30 28,34 57,32 35,-2 44,-5 73,-17 80,-33 111,-39 178,-93l121 -106c56,-54 49,79 -21,132 -27,21 -58,43 -91,60 -24,12 -55,41 -97,55 -15,5 -24,7 -38,13 -12,6 -25,6 -40,12 -44,18 -133,23 -130,75 12,25 90,13 113,6 82,-23 141,-72 207,-117 8,-5 15,-7 23,-12 11,-8 21,-22 28,-26 14,-7 6,-2 11,-1 1,0 2,1 2,1 14,4 -11,34 -16,42 -14,28 -31,55 -53,77 -14,14 -23,18 -38,29 -51,40 -135,102 -196,131 -47,23 -97,38 -151,46 -34,4 -217,33 -237,25 0,-22 46,-57 63,-119 30,-109 19,-208 -56,-292 -27,-30 -85,-57 -127,-62 -105,-11 -217,15 -309,59 -56,28 -118,85 -135,147 -34,118 157,143 187,96 9,-14 3,-25 5,-42 3,-26 32,-32 52,-42 21,-10 43,-20 71,-22 38,-4 53,-3 62,30 28,102 -35,200 -129,235 -65,24 -79,31 -160,23 -87,-10 -169,-17 -254,-29 -15,-3 -27,-4 -42,-5 -8,-1 -11,-2 -20,-4 -27,-10 -8,-30 -2,-54 3,-15 8,-41 9,-56 1,-30 -19,-73 -33,-93 -6,-9 -25,-24 -32,-31 -10,-9 -26,-16 -39,-26 -46,-35 -153,-40 -211,-44 -21,-1 -35,-7 -53,-9 -71,-8 -42,-31 -17,-55l34 -31c11,-9 26,-18 32,-33 5,-11 3,-41 -2,-55 -8,-22 -10,-27 -3,-53 4,-16 10,-35 19,-45 29,-32 76,-50 113,-76 13,-11 22,-23 33,-32 13,-9 28,-17 26,-38 -4,-39 -50,-37 -33,-83 12,-32 25,-60 42,-88 15,-24 34,-53 52,-75 17,-19 48,-45 67,-62 65,-55 176,-94 254,-126 40,-16 109,-32 151,-44 28,-8 74,-18 104,-23 37,-5 80,-3 120,-6 83,-7 165,5 248,3 32,0 147,21 176,45 8,7 6,7 17,15 22,13 37,48 48,79 25,67 -5,147 -36,202 -9,17 -17,26 -26,39 -9,15 -15,28 -26,39 -9,8 -24,19 -26,35 -2,20 15,27 34,28 34,2 94,5 120,-9 39,-21 78,-119 90,-162 33,-113 -18,-215 23,-229 55,-19 48,23 47,68 -2,60 -15,163 -40,214 -5,10 -4,12 -8,24l-32 65c-10,22 -41,54 -64,62 -10,3 -14,6 -21,9 -20,7 -62,3 -69,28 -5,20 13,29 31,29 26,1 31,-10 48,-17 20,-9 66,-37 79,-51 57,-63 37,-48 75,-117 23,-41 31,-105 39,-151 16,-90 -25,-208 76,-161 38,18 26,51 22,93 -6,51 -22,109 -33,159 -12,52 -79,170 -115,202 -26,23 -77,76 -104,88 -30,14 -82,18 -89,38 -6,19 10,35 24,39 22,6 71,-25 88,-36 30,-19 131,-124 160,-158l27 -39c17,-25 27,-57 40,-89 13,-30 18,-66 26,-100 5,-21 8,-31 10,-54 2,-17 3,-42 16,-51zm-1411 1170c-33,32 -181,44 -238,37 -17,-2 -111,-23 -115,-23 -25,4 -27,47 43,69 72,23 175,12 253,0 65,-9 58,0 110,-62 8,-9 8,-9 22,-14 25,-10 34,-7 64,-6 34,1 116,-5 75,48 -19,23 -56,45 -86,55 -38,12 -157,-6 -260,14 -58,11 -204,26 -257,6 -16,-6 -31,-17 -34,-33 -7,-33 10,-31 22,-48 17,-26 0,-32 23,-48 13,-9 31,-20 22,-42 -17,-38 -151,-35 -209,23 -52,52 -69,116 -69,212 0,46 5,82 23,117l43 63c47,57 122,100 197,118 82,19 165,19 250,30 40,6 233,4 273,-3 76,-13 164,-18 232,-47 51,-22 106,-58 153,-92 23,-16 22,-30 55,12 18,22 49,38 75,49 15,6 26,14 42,19 61,19 163,7 228,-3 69,-10 133,-34 190,-57 28,-11 57,-27 82,-43 77,-48 134,-115 159,-214 14,-55 28,-170 16,-228 -10,-44 -16,-55 -34,-90 -24,-45 7,-51 27,-77 35,-47 76,-94 97,-153 46,-130 25,-76 49,-198 22,-111 20,-346 -11,-455 -19,-69 -31,-132 -56,-194 -13,-32 -29,-53 -55,-69 -36,-24 -48,-25 -99,-25 -49,0 -66,1 -110,15 -93,30 -83,74 -65,163 6,33 4,82 -2,114 -9,45 -29,94 -63,122 -11,8 -23,23 -45,19 -15,-44 52,-71 67,-195 8,-67 -20,-173 -50,-217 -17,-24 -51,-44 -77,-56 -24,-10 -78,-25 -104,-31 -16,-4 -47,-5 -64,-6 -19,0 -37,-5 -58,-6 -290,-16 -426,-7 -691,109 -35,16 -59,30 -87,49 -28,20 -54,34 -80,55 -31,25 -42,32 -73,62l-48 50c-6,9 -9,14 -14,22 -24,37 -80,157 -41,200 50,56 -23,51 -46,59 -69,23 -110,83 -116,152 -8,90 12,87 -21,109l-50 50c-5,6 -8,16 -12,24 -31,59 -25,183 0,227l63 73c17,16 114,64 131,69 22,6 32,11 51,17 34,11 60,25 102,34l161 41c26,8 40,0 40,28z"/>
    <path class="fil2" d="M531 1333c-11,-16 -26,-20 -49,-14 -18,5 -37,12 -56,17 -44,14 -64,20 -101,46 -33,23 -92,103 -111,143 -2,4 -3,8 -5,12l-11 12c-11,-24 -8,-35 -8,-66 0,-37 1,-36 17,-59 7,-9 5,-14 13,-23 11,-14 25,-27 35,-42 20,-34 64,-69 97,-91 19,-12 30,-17 59,-19 18,-1 43,-7 65,-10 68,-9 66,-56 6,-50 -38,3 -95,8 -126,24 -15,7 -29,20 -45,29 -20,13 -29,20 -42,35 -15,17 -53,80 -75,70 -5,-9 -6,-56 -1,-67 6,-16 26,-30 35,-41 23,-28 59,-41 82,-72 20,-27 62,-44 91,-59 23,-13 24,-15 55,-22 22,-4 49,-4 73,-4 26,0 34,-22 20,-40 -10,-14 -46,-9 -68,-9 -42,1 -90,10 -120,32 -17,13 -23,23 -40,34 -30,21 -60,43 -86,67 -11,11 -23,31 -44,30 -5,-17 4,-53 6,-72 5,-53 14,-71 60,-98 16,-9 30,-26 46,-37 10,-7 57,-58 96,-65l135 -28c21,-4 54,6 68,-11 18,-24 -8,-38 -32,-39 -31,0 -119,9 -147,16 -39,10 -82,28 -111,51 -19,17 -50,35 -66,55 -8,11 -8,17 -27,15 1,-29 12,-53 18,-80 13,-61 30,-50 71,-77 11,-7 12,-13 27,-22 42,-26 87,-47 133,-65 92,-35 92,-14 166,-31 23,-5 57,-20 60,-41 -9,-15 -24,-19 -49,-16 -104,12 -68,7 -173,31 -39,9 -111,35 -138,65 -9,10 -29,24 -45,25 5,-33 11,-63 26,-92 14,-30 39,-37 65,-52 13,-8 14,-6 29,-10 12,-3 6,-2 15,-6 7,-2 10,-2 16,-3 24,-6 27,-16 57,-21 22,-3 43,-13 64,-15 13,-2 143,-11 144,-11 5,-4 3,0 7,-9 6,-10 5,-26 -4,-32 -25,-16 -140,-5 -166,1 -17,4 -33,10 -49,13 -18,4 -33,6 -51,10 -50,14 -74,41 -87,25 -10,-13 6,-43 13,-55 15,-25 59,-57 86,-67 13,-5 44,-15 56,-21 57,-26 139,-22 204,-22 13,0 24,0 33,-6 7,-4 15,-10 20,-17 -3,-17 -20,-29 -41,-29 -45,0 -101,-3 -144,0 -16,1 -45,21 -58,7 -24,-26 85,-47 99,-49 27,-2 117,-11 133,-23 20,-15 18,-35 -3,-45 -38,-17 -90,8 -128,20 -56,18 -120,31 -159,77 -29,33 -83,72 -102,95 -6,7 -10,13 -17,21l-35 45c-28,50 -29,51 -50,109 -7,19 -12,38 -19,57 -13,40 -29,75 -41,116 -6,21 -15,33 -20,59 -10,43 -26,80 -34,122 -14,70 -22,143 -21,216 1,41 -4,100 -3,156 1,66 7,158 17,220 13,72 42,105 88,147 8,7 15,8 19,20 12,47 -55,8 -69,-2l-42 -38c-33,-32 -37,-51 -49,-107 -9,-46 -19,-92 -19,-140 1,-157 -3,-296 22,-450 7,-49 17,-85 28,-130 11,-46 19,-82 32,-124 7,-20 11,-43 17,-63 8,-29 22,-61 27,-92 6,-45 39,-99 60,-136 10,-17 23,-30 36,-44l41 -35c9,-7 15,-7 23,-15 21,-20 44,-35 68,-54l50 -29c33,-15 76,-36 114,-41 25,-4 43,-12 65,-15 24,-4 48,-5 72,-8 23,-3 52,2 76,-1 25,-2 39,-21 21,-42 -15,-19 -111,-15 -142,-15 -70,1 -132,17 -194,43 -20,8 -39,13 -58,22 -35,17 -62,43 -95,60 -29,15 -62,51 -84,75 -45,47 -66,83 -91,145 -37,90 -30,89 -55,180 -12,42 -23,81 -36,124l-29 127c-9,48 -14,89 -20,139 -14,110 -26,336 -8,449 8,54 16,78 33,125 7,17 16,38 25,52 7,10 27,38 34,45 68,63 124,90 222,92 55,1 159,11 201,-29 11,-10 29,-36 8,-49 -13,-7 -54,1 -71,3 -25,2 -119,7 -126,-24 -6,-33 30,-88 55,-103 15,-9 36,-16 54,-25 10,-4 103,-27 76,-69 -19,-31 -156,27 -184,72 -7,10 -10,16 -18,24 -16,15 -20,36 -31,48 -29,32 -70,-49 -55,-81 9,-18 18,-37 28,-51 22,-32 40,-67 68,-91 34,-29 54,-46 98,-59 36,-10 106,-11 105,-53z"/>
    <path class="fil2" d="M1755 609c-15,103 -22,136 -135,160 -51,11 -96,22 -150,26 -52,5 -178,6 -222,-11 -20,-7 -65,-28 -76,-41 -14,-17 -14,-84 9,-92 40,-14 258,18 304,-20 7,-6 10,-7 17,-12 14,-10 46,-47 57,-61 43,-57 -19,-118 65,-113 12,1 15,4 25,6 18,3 35,-2 67,22 34,27 43,103 39,136zm-217 -112c-5,17 -17,28 -24,40 -14,23 -32,7 -18,-15 11,-15 14,-28 22,-43 14,-23 28,-8 20,18zm-55 -14c-11,23 -25,41 -49,50 -27,9 -51,18 -81,21 -15,2 -95,14 -108,20 -10,5 -8,7 -13,13 -15,18 -29,-1 -18,-18l58 -41c26,-15 43,-21 71,-33 26,-11 49,-16 79,-24 20,-4 81,-29 61,12zm-136 376l3 0c86,0 176,4 261,-16 44,-11 67,-23 96,-46 12,-10 28,-22 36,-34 10,-14 17,-32 31,-40 20,0 20,16 56,14 70,-2 113,-4 169,-42 22,-15 55,-47 66,-75 25,-65 38,-181 27,-252 -9,-56 -5,-70 -36,-109 -72,-93 -135,-89 -240,-89 -18,0 -76,-6 -85,4 -20,20 21,37 40,41 51,9 87,-8 165,13 42,12 80,42 99,82 38,77 -2,222 -32,297 -20,50 -57,53 -114,67 -17,4 -64,9 -80,2 -23,-9 -11,-36 -10,-70 3,-56 -9,-176 -61,-205 -19,-11 -40,-20 -65,-23 -116,-14 -333,40 -427,109 -15,11 -34,28 -49,39 -31,25 -56,71 -67,113 -6,24 -9,57 -6,83 6,52 13,74 77,103 50,23 83,34 146,34z"/>
    <path class="fil2" d="M1345 2c-44,10 -60,15 -72,58 -4,17 8,34 20,41 22,13 29,5 52,1 51,-9 8,6 47,-17 11,-8 29,-16 28,-36 -1,-35 -36,-56 -75,-47z"/>
    <path class="fil2" d="M1045 61c-17,8 -22,9 -35,25 -40,55 -14,84 61,77 47,-4 71,-68 19,-95 -5,-2 -16,-5 -22,-7 -14,-5 -11,-5 -23,0z"/>
    <path class="fil2" d="M1009 858c24,0 42,-11 41,-37 -1,-20 -24,-38 -46,-34 -47,7 -65,71 5,71z"/>
   </g>
   <g>
    <path class="fil0" d="M2999 213l-25 -42c-1,0 -3,0 -5,0l-33 0 0 42 -27 0 0 -144 60 0c19,0 33,5 43,13 10,9 15,21 15,37 0,11 -2,21 -7,29 -5,8 -12,14 -21,18l31 47 -31 0zm-63 -66l33 0c10,0 18,-3 24,-7 5,-5 8,-11 8,-20 0,-9 -3,-16 -8,-20 -6,-4 -14,-6 -24,-6l-33 0 0 53z"/>
    <path class="fil2" d="M2970 0c78,0 141,63 141,141 0,78 -63,142 -141,142 -78,0 -142,-64 -142,-142 0,-78 64,-141 142,-141zm0 26c63,0 115,52 115,115 0,64 -52,116 -115,116 -64,0 -116,-52 -116,-116 0,-63 52,-115 116,-115z"/>
   </g>
  </g>
 </g>
</svg>
