<?xml version="1.0" encoding="UTF-8"?>
<!DOCTYPE svg PUBLIC "-//W3C//DTD SVG 1.1//EN" "http://www.w3.org/Graphics/SVG/1.1/DTD/svg11.dtd">
<!-- Creator: CorelDRAW X7 -->
<svg xmlns="http://www.w3.org/2000/svg" xml:space="preserve" width="89.4465mm" height="57.8374mm" version="1.1" style="shape-rendering:geometricPrecision; text-rendering:geometricPrecision; image-rendering:optimizeQuality; fill-rule:evenodd; clip-rule:evenodd"
viewBox="0 0 9287 6005"
 xmlns:xlink="http://www.w3.org/1999/xlink">
 <defs>
  <style type="text/css">
   <![CDATA[
    .fil0 {fill:black}
    .fil1 {fill:black;fill-rule:nonzero}
   ]]>
  </style>
 </defs>
 <g id="Warstwa_x0020_1">
  <metadata id="CorelCorpID_0Corel-Layer"/>
  <g id="_2419465532800">
   <path class="fil0" d="M3646 5754c-8,-55 49,-114 69,-165 23,-56 48,-130 62,-186 33,-139 29,-365 45,-403l10 -17c14,-21 232,-15 261,-9 80,123 3,432 -19,576 -8,55 -3,100 -30,139 -16,24 -58,64 -92,73 -60,16 -258,15 -306,-8zm1998 -1203c-13,70 -16,74 -47,124 -113,177 -81,530 -210,643 -32,28 -65,41 -100,66 -30,22 -76,46 -112,63 -56,27 -84,56 -217,118 -111,51 -410,112 -543,143 -41,9 -103,17 -150,5 -120,-29 -46,-149 -22,-231 94,-323 38,-250 16,-421 -10,-75 1,-84 60,-108 45,-18 25,-15 50,-38 50,-45 20,32 237,-194 130,-136 165,-224 436,-239 136,-8 355,1 510,-1 74,0 107,-10 92,70zm-2668 473c149,0 273,2 422,-9 68,-5 171,-20 230,-8 63,122 -42,628 -159,696 -35,20 -265,14 -317,12 -136,-3 -341,-21 -447,-85 -171,-102 -254,-113 -363,-348 -64,-139 -86,-120 -86,-318 1,-101 -2,-126 29,-208 30,-79 129,-238 207,-267 133,-47 61,60 37,99 -77,122 -35,281 57,344 47,32 108,52 170,68 97,26 116,24 220,24zm3499 -160c-45,0 -71,-4 -87,-35 -51,-85 168,-91 124,-228 -66,-30 -66,-3 -129,34 -40,23 -81,52 -106,88 -115,167 72,365 386,324 54,-7 110,-17 163,-31 154,-41 251,-121 361,-228 174,-167 142,-564 175,-617 19,-31 83,-64 108,-84 39,-29 76,-52 129,-73 249,-99 235,351 224,528 -10,155 -88,309 -166,426 -36,53 -131,169 -185,210 -35,27 -82,46 -115,79 -65,66 -146,112 -246,149 -304,115 -826,189 -1148,87 -50,-16 -93,-41 -133,-60 -157,-77 -189,-197 -157,-384 28,-166 90,-447 222,-542 53,-38 92,-20 166,-26 158,-13 355,-28 504,-68 37,-10 295,-71 309,-69 30,62 11,144 -20,191 -112,165 -233,144 -249,227 -17,91 32,102 -130,102zm356 -106c-2,-45 24,-39 85,-136 82,-129 70,-101 97,-255 8,-46 5,-56 42,-71 35,-15 145,-85 171,-23 44,104 -35,220 -60,275 -18,39 -18,47 -44,78 -48,56 -211,192 -291,132zm-4124 -1354c7,54 10,221 128,136 115,-84 102,-93 220,-93 66,-1 132,-4 159,49 -8,92 -191,107 -133,255 118,47 111,-96 239,-157 53,-25 104,23 128,54 37,47 40,84 46,164 5,77 7,117 -38,163 -137,141 -264,13 -444,-59 -49,-19 -97,-32 -148,-53 -113,-46 -298,-169 -388,-237 -29,-23 -74,-76 -89,-113 -93,-238 30,-167 150,-148 59,9 123,23 170,39zm2540 855c-4,-67 60,-83 102,-122 41,-37 182,-196 205,-252 65,-161 47,-485 -27,-611 -72,-121 -211,-133 -341,-101 -108,26 -268,68 -328,131 -41,43 -65,61 -104,124 -74,117 -18,143 -76,159 -88,23 -351,13 -263,-166 100,-207 331,-322 558,-364 133,-24 257,-65 394,-68 130,-3 299,17 402,61 143,63 157,113 231,235 62,101 81,255 54,389 -17,87 -35,106 -54,175 -26,98 -99,221 -172,292 -23,22 -103,92 -133,104 -42,17 -384,22 -448,14zm2845 -3297c22,11 29,32 37,61 6,28 12,53 18,80 31,142 71,404 56,541 -10,84 -21,95 -63,141 -30,35 -47,79 -83,120 -188,208 -135,236 -388,411 -129,90 -33,72 -303,198 -74,33 -139,72 -224,82 -61,8 -110,18 -156,48 -101,64 -100,228 155,138 56,-21 217,-108 271,-142 33,-21 52,-34 90,-51 46,-20 148,-77 177,-104l477 -500c27,-39 29,-54 88,-56 49,65 49,183 29,281 -34,172 -184,254 -318,348 -133,94 -246,193 -392,276 -75,43 -267,130 -350,152 -45,11 -83,24 -128,38 -98,32 -196,11 -242,94 2,87 83,100 168,95 105,-7 134,-16 220,-52 237,-99 329,-115 531,-276l361 -316c168,-162 146,234 -63,393 -82,62 -174,128 -271,178 -73,38 -163,122 -291,165 -45,14 -70,20 -111,39 -38,18 -76,18 -122,36 -131,52 -397,67 -387,223 37,76 269,38 338,18 243,-70 419,-215 618,-348 23,-15 44,-21 68,-38 33,-24 62,-64 84,-76 41,-22 19,-7 33,-4 2,1 5,2 7,3 41,11 -36,103 -48,127 -42,82 -93,164 -159,228 -42,41 -71,53 -114,87 -153,120 -402,305 -585,392 -142,67 -290,112 -452,135 -101,15 -648,99 -708,77 1,-67 138,-171 190,-357 89,-325 58,-620 -167,-870 -81,-89 -255,-172 -379,-185 -315,-32 -649,43 -923,176 -168,82 -351,254 -404,439 -101,353 469,425 559,287 28,-44 10,-75 15,-126 9,-79 96,-97 156,-125 62,-30 127,-60 211,-68 114,-10 159,-8 186,92 82,305 -105,596 -385,700 -195,73 -237,94 -479,68 -259,-28 -504,-50 -758,-87 -43,-6 -82,-10 -125,-15 -25,-2 -34,-4 -58,-12 -83,-27 -25,-88 -8,-160 10,-43 25,-122 26,-166 3,-91 -57,-219 -98,-280 -16,-24 -74,-71 -94,-90 -31,-27 -77,-48 -116,-78 -138,-105 -457,-120 -632,-132 -61,-4 -103,-19 -158,-26 -211,-24 -126,-93 -49,-164l99 -94c34,-27 79,-52 98,-97 15,-34 7,-125 -7,-165 -23,-67 -31,-80 -10,-160 12,-47 31,-103 59,-133 86,-94 227,-148 335,-228 41,-31 65,-68 100,-94 37,-28 83,-50 77,-112 -11,-118 -149,-113 -98,-251 35,-95 74,-178 125,-262 44,-72 100,-156 156,-222 50,-58 142,-136 200,-186 192,-165 524,-280 758,-375 118,-48 324,-97 450,-132 85,-24 221,-54 311,-68 111,-17 237,-9 358,-19 247,-21 494,15 739,10 97,-2 441,60 526,133 24,21 17,23 53,44 65,40 108,146 141,236 75,201 -14,438 -106,605 -26,48 -52,76 -77,116 -27,44 -47,83 -79,114 -26,25 -72,58 -77,107 -6,57 45,81 102,84 101,5 279,13 357,-28 118,-63 233,-357 270,-485 98,-337 -54,-640 67,-681 165,-57 145,67 141,203 -5,179 -44,485 -119,636 -15,30 -13,38 -26,72l-93 197c-32,62 -124,159 -193,183 -29,10 -40,18 -62,26 -61,22 -186,10 -206,85 -16,59 38,87 93,88 78,0 93,-31 144,-53 57,-25 196,-110 235,-152 169,-187 112,-144 224,-348 68,-124 93,-314 117,-452 48,-267 -76,-621 225,-479 114,54 80,150 65,276 -17,152 -63,325 -97,474 -34,157 -235,508 -344,605 -76,68 -228,226 -309,262 -89,40 -247,54 -265,114 -18,56 27,105 70,116 67,18 211,-76 263,-109 90,-55 390,-369 478,-472l79 -114c52,-77 83,-172 121,-266 38,-90 55,-198 78,-299 15,-63 24,-92 31,-162 4,-50 8,-125 45,-151zm-4211 3493c-100,93 -542,131 -710,110 -52,-6 -333,-71 -344,-69 -76,13 -79,142 128,207 214,67 522,34 755,0 194,-29 173,-2 331,-187 22,-26 23,-27 63,-42 76,-28 103,-19 191,-17 101,2 346,-14 224,142 -55,71 -168,135 -257,165 -112,38 -468,-17 -777,42 -171,32 -607,79 -766,18 -47,-17 -92,-51 -102,-99 -20,-97 32,-92 66,-143 51,-79 2,-96 68,-142 41,-28 95,-61 67,-126 -50,-115 -451,-106 -625,69 -154,156 -205,346 -205,634 0,135 15,244 69,347l128 189c140,170 363,299 590,352 244,57 491,56 743,90 122,17 698,13 816,-8 228,-41 489,-56 692,-143 154,-65 316,-173 457,-272 70,-50 65,-92 166,33 53,66 144,115 222,147 45,19 79,43 127,58 180,57 487,19 680,-9 206,-30 398,-101 569,-171 83,-33 168,-81 242,-127 230,-145 401,-346 476,-639 42,-166 84,-508 46,-680 -28,-133 -48,-164 -101,-269 -69,-136 23,-154 81,-231 106,-141 226,-279 289,-458 138,-386 75,-226 148,-590 66,-330 59,-1032 -33,-1359 -58,-206 -93,-393 -168,-579 -39,-95 -88,-158 -163,-207 -110,-70 -144,-72 -297,-72 -147,0 -197,1 -327,43 -280,90 -249,221 -195,489 19,97 12,243 -6,337 -26,135 -87,281 -189,365 -31,26 -68,69 -134,57 -45,-132 155,-210 199,-581 24,-202 -58,-516 -148,-648 -50,-72 -152,-133 -230,-167 -71,-30 -231,-75 -310,-93 -47,-11 -139,-15 -189,-17 -60,-2 -113,-17 -176,-20 -864,-46 -1270,-21 -2062,327 -105,46 -177,89 -259,146 -84,58 -161,102 -239,164 -94,75 -125,94 -219,186l-142 148c-18,26 -28,43 -41,65 -72,111 -240,468 -125,597 150,168 -68,154 -137,178 -205,68 -328,248 -345,454 -23,269 35,257 -63,325l-150 149c-13,17 -24,48 -35,70 -92,178 -75,547 1,679l187 217c51,47 340,193 391,207 66,17 97,33 152,51 103,33 180,74 304,100l482 124c78,23 119,0 119,84z"/>
   <path class="fil0" d="M1585 3979c-31,-49 -77,-58 -146,-41 -54,15 -109,34 -167,51 -133,40 -192,59 -303,137 -97,68 -273,307 -330,426 -6,13 -10,25 -17,36l-32 35c-31,-71 -21,-105 -22,-196 0,-109 2,-108 51,-176 20,-28 15,-42 37,-69 33,-41 76,-80 104,-125 62,-101 192,-206 291,-271 56,-37 89,-52 175,-56 54,-3 131,-22 195,-30 203,-27 197,-168 16,-151 -112,10 -282,24 -376,71 -44,22 -86,60 -131,88 -60,37 -87,60 -126,104 -45,51 -158,238 -226,208 -15,-27 -18,-165 -3,-200 19,-47 79,-89 107,-122 69,-82 174,-122 243,-213 61,-80 185,-133 271,-179 69,-36 74,-43 165,-63 65,-14 147,-13 218,-13 78,0 101,-66 60,-120 -31,-40 -138,-27 -202,-25 -127,2 -270,30 -359,96 -50,37 -68,66 -119,100 -90,62 -179,127 -256,201 -34,32 -69,92 -132,88 -17,-50 11,-159 17,-215 15,-157 41,-211 179,-292 48,-28 89,-77 137,-110 31,-22 170,-173 288,-195l401 -83c63,-12 162,19 203,-34 54,-70 -24,-114 -94,-115 -92,-1 -357,27 -440,48 -116,29 -244,82 -329,153 -59,49 -152,104 -198,163 -26,33 -25,49 -81,44 2,-87 34,-157 53,-240 41,-180 89,-147 212,-227 34,-23 36,-40 81,-68 125,-78 259,-139 397,-192 273,-105 275,-43 495,-94 69,-15 170,-60 179,-121 -27,-47 -71,-59 -146,-50 -309,38 -204,24 -515,94 -117,27 -333,105 -413,193 -27,30 -88,73 -133,75 13,-99 33,-187 75,-274 43,-91 119,-109 195,-156 40,-24 42,-17 87,-28 37,-9 17,-7 45,-18 21,-8 30,-7 49,-11 69,-18 80,-48 168,-60 66,-10 129,-40 192,-47 40,-4 428,-33 428,-33 18,-11 10,1 24,-25 16,-30 13,-79 -14,-97 -75,-48 -418,-15 -494,3 -51,13 -100,31 -146,40 -54,12 -99,16 -153,30 -151,41 -220,122 -259,73 -30,-38 17,-126 37,-162 45,-77 176,-172 256,-201 42,-15 132,-45 167,-62 171,-80 417,-66 611,-66 39,0 72,-2 97,-18 22,-13 45,-29 60,-51 -8,-52 -58,-87 -121,-87 -134,1 -304,-9 -432,-1 -48,3 -132,63 -171,21 -73,-77 253,-140 295,-144 80,-9 348,-36 396,-71 62,-45 56,-104 -9,-133 -113,-52 -267,22 -382,59 -165,54 -358,91 -474,229 -86,101 -248,217 -305,284 -19,22 -30,40 -52,63l-102 134c-84,149 -86,152 -150,326 -21,57 -37,114 -56,172 -39,118 -88,221 -123,343 -18,63 -44,101 -60,178 -28,128 -78,240 -103,363 -41,210 -64,428 -61,645 2,122 -12,298 -9,466 3,198 20,473 51,656 37,215 127,316 264,440 22,20 44,23 54,60 38,140 -163,23 -203,-8l-127 -111c-100,-97 -111,-154 -145,-321 -27,-138 -57,-272 -57,-417 1,-469 -9,-884 64,-1344 22,-144 53,-252 84,-389 32,-137 57,-243 97,-369 19,-60 31,-128 49,-189 24,-85 66,-182 80,-273 20,-135 118,-295 180,-407 29,-52 69,-90 107,-130l122 -107c28,-19 45,-21 70,-44 63,-59 131,-105 202,-159l151 -87c97,-47 225,-108 341,-124 73,-10 127,-36 194,-45 71,-10 141,-13 213,-22 69,-10 156,4 226,-3 77,-7 118,-65 65,-127 -47,-55 -331,-43 -425,-43 -209,0 -395,50 -580,126 -59,25 -116,40 -171,66 -107,51 -188,128 -286,181 -85,45 -183,152 -251,223 -132,140 -197,247 -272,432 -109,270 -88,266 -164,538 -35,127 -67,243 -105,371l-87 379c-26,142 -42,266 -61,415 -42,327 -76,1003 -23,1340 25,160 49,234 100,372 19,51 45,113 73,156 20,31 81,115 102,135 202,187 369,268 661,275 166,3 475,33 602,-87 31,-29 86,-109 22,-146 -38,-22 -161,2 -210,8 -76,8 -357,23 -376,-72 -20,-99 90,-262 164,-306 44,-26 107,-49 162,-75 28,-13 307,-80 227,-206 -59,-93 -468,80 -552,216 -19,30 -29,47 -52,70 -47,46 -60,107 -93,145 -86,94 -210,-148 -164,-243 26,-53 54,-111 84,-154 64,-93 118,-198 203,-272 100,-86 160,-136 291,-174 109,-31 317,-33 314,-159z"/>
   <path class="fil0" d="M5238 1817c-43,309 -66,406 -403,478 -151,32 -285,67 -446,80 -155,12 -533,15 -663,-34 -59,-22 -194,-84 -228,-124 -41,-49 -42,-249 27,-274 120,-42 771,54 907,-59 22,-18 30,-20 52,-36 41,-30 137,-140 169,-182 130,-170 -57,-354 196,-337 36,3 45,12 72,17 56,9 105,-7 200,66 104,79 130,308 117,405zm-645 -334c-15,52 -51,86 -73,120 -44,68 -97,21 -53,-44 31,-45 39,-84 65,-129 41,-69 83,-23 61,53zm-165 -41c-33,68 -76,123 -148,148 -80,29 -151,55 -241,65 -45,4 -284,40 -322,58 -31,15 -25,22 -40,40 -45,53 -84,-4 -54,-53l175 -125c76,-43 128,-63 210,-97 80,-33 149,-49 238,-71 58,-14 240,-87 182,35zm-406 1122l9 0c256,1 526,11 778,-49 133,-32 201,-66 286,-135 37,-30 85,-67 110,-102 29,-41 48,-96 92,-121 59,3 58,48 167,44 209,-8 336,-13 504,-127 64,-43 165,-141 197,-224 74,-194 114,-541 80,-751 -26,-167 -16,-209 -107,-326 -214,-277 -405,-266 -718,-266 -53,0 -225,-16 -253,12 -60,61 64,112 119,122 152,27 261,-23 495,41 124,34 237,125 295,242 113,230 -8,663 -98,888 -59,149 -168,158 -338,200 -51,12 -192,27 -239,7 -70,-28 -34,-110 -29,-211 8,-166 -27,-525 -184,-612 -57,-31 -119,-57 -195,-67 -346,-44 -993,120 -1273,324 -46,34 -102,85 -145,119 -94,73 -168,211 -201,336 -19,71 -28,170 -19,248 19,155 40,221 231,307 149,68 246,100 436,101z"/>
   <path class="fil0" d="M4016 6c-132,29 -179,43 -215,174 -14,50 23,100 57,121 68,40 88,15 157,3 151,-26 24,19 139,-52 36,-21 87,-45 85,-105 -4,-106 -108,-167 -223,-141z"/>
   <path class="fil0" d="M3120 182c-53,24 -67,26 -104,75 -119,163 -44,249 180,231 141,-12 213,-205 56,-284 -13,-6 -47,-17 -64,-23 -41,-14 -32,-15 -68,1z"/>
   <path class="fil0" d="M3011 2562c72,-1 128,-33 124,-112 -3,-60 -72,-112 -139,-102 -140,23 -193,214 15,214z"/>
  </g>
  <g id="_2419465535488">
   <path class="fil1" d="M8953 637l-75 -127c-3,0 -8,0 -15,0l-97 0 0 127 -82 0 0 -430 179 0c56,0 99,13 129,39 30,26 45,62 45,109 0,34 -7,62 -21,86 -15,24 -36,42 -64,53l94 143 -93 0zm-187 -199l97 0c31,0 55,-7 71,-20 17,-14 25,-34 25,-60 0,-27 -8,-46 -25,-59 -16,-13 -40,-20 -71,-20l-97 0 0 159z"/>
   <path class="fil0" d="M8865 0c233,0 422,189 422,422 0,233 -189,422 -422,422 -233,0 -422,-189 -422,-422 0,-233 189,-422 422,-422zm0 78c190,0 344,154 344,344 0,190 -154,344 -344,344 -190,0 -344,-154 -344,-344 0,-190 154,-344 344,-344z"/>
  </g>
 </g>
</svg>
