<?xml version="1.0" encoding="UTF-8"?>
<!DOCTYPE svg PUBLIC "-//W3C//DTD SVG 1.1//EN" "http://www.w3.org/Graphics/SVG/1.1/DTD/svg11.dtd">
<!-- Creator: CorelDRAW X7 -->
<svg xmlns="http://www.w3.org/2000/svg" xml:space="preserve" width="161.131mm" height="33.8813mm" version="1.1" style="shape-rendering:geometricPrecision; text-rendering:geometricPrecision; image-rendering:optimizeQuality; fill-rule:evenodd; clip-rule:evenodd"
viewBox="0 0 9566 2011"
 xmlns:xlink="http://www.w3.org/1999/xlink">
 <defs>
  <style type="text/css">
   <![CDATA[
    .str0 {stroke:black;stroke-width:29.6828}
    .fil1 {fill:none}
    .fil2 {fill:black}
    .fil0 {fill:black;fill-rule:nonzero}
   ]]>
  </style>
 </defs>
 <g id="Warstwa_x0020_1">
  <metadata id="CorelCorpID_0Corel-Layer"/>
  <g id="_2419467616496">
   <path class="fil0" d="M3248 858l18 0c12,0 21,-2 27,-6 6,-3 9,-9 9,-17l0 -350c0,-15 -12,-23 -36,-23l-18 0 0 -19 221 0c49,0 84,12 106,35 21,23 31,56 31,98 0,41 -10,74 -31,97 -22,24 -57,35 -106,35l-92 0 0 127c0,15 11,23 35,23l18 0 0 19 -182 0 0 -19zm205 -178c54,0 80,-35 80,-104 0,-70 -26,-104 -80,-104l-76 0 0 208 76 0z"/>
   <path id="1" class="fil0" d="M3953 768c5,19 10,35 15,47 5,11 12,21 21,30 8,8 20,12 34,13l0 19 -58 0c-22,0 -38,-5 -50,-16 -12,-10 -21,-26 -27,-47 -4,-14 -7,-25 -9,-35 -4,-21 -9,-38 -14,-50 -4,-13 -11,-23 -21,-31l-85 0 0 137c0,15 12,23 35,23l19 0 0 19 -182 0 0 -19 18 0c12,0 21,-2 27,-6 6,-3 9,-9 9,-17l0 -350c0,-15 -12,-23 -36,-23l-18 0 0 -19 218 0c50,0 85,11 106,33 22,22 33,53 33,94 0,32 -7,59 -20,79 -12,21 -33,35 -62,43 13,7 23,16 29,28 6,12 12,28 18,48zm-194 -99l74 0c28,0 49,-8 62,-25 13,-17 19,-41 19,-74 0,-32 -6,-57 -19,-74 -13,-16 -34,-24 -62,-24l-74 0 0 197z"/>
   <path id="2" class="fil0" d="M4506 858l0 19 -170 0 0 -19 11 0c10,0 17,-2 21,-5 5,-3 7,-7 7,-13 0,-5 -2,-13 -6,-25l-24 -64 -170 0 -29 76c-1,4 -2,7 -2,10 0,6 3,11 9,15 6,4 13,6 21,6l12 0 0 19 -140 0 0 -19 9 0c9,0 17,-2 26,-6 8,-5 14,-10 16,-17l148 -381 55 -21 157 403c3,7 7,12 14,16 8,4 15,6 23,6l12 0zm-171 -135l-74 -202 -76 202 150 0z"/>
   <path id="3" class="fil0" d="M5088 443l0 19 -10 0c-23,0 -37,8 -42,23l-115 394 -46 0 -96 -287 -104 287 -55 0 -119 -395c-2,-7 -6,-12 -14,-16 -7,-4 -14,-6 -22,-6l-12 0 0 -19 170 0 0 19 -12 0c-9,0 -16,2 -21,5 -6,4 -8,8 -8,14 0,2 0,4 0,5l81 313 95 -268 -15 -47c-3,-7 -7,-12 -15,-16 -7,-4 -14,-6 -22,-6l-11 0 0 -19 160 0 0 19 -12 0c-8,0 -16,2 -22,7 -7,4 -9,9 -7,16l94 314 82 -312c0,-1 0,-3 0,-5 0,-6 -3,-11 -8,-14 -6,-4 -12,-6 -19,-6l-15 0 0 -19 140 0z"/>
   <path id="4" class="fil0" d="M5104 858l19 0c23,0 35,-8 35,-23l0 -350c0,-15 -12,-23 -35,-23l-19 0 0 -19 203 0c134,0 201,72 201,217 0,145 -67,217 -202,217l-202 0 0 -19zm201 -9c42,0 74,-16 96,-49 21,-33 32,-79 32,-140 0,-60 -11,-107 -32,-140 -22,-33 -53,-49 -95,-49l-74 0 0 378 73 0z"/>
   <path id="5" class="fil0" d="M5547 859l250 -387 -151 0c-34,0 -53,27 -57,82l-19 0 0 -111 307 0 0 13 -250 392 174 0c18,0 31,-8 40,-24 8,-16 14,-37 17,-60l19 0 -11 113 -319 0 0 -18z"/>
   <path id="6" class="fil0" d="M5912 858l18 0c24,0 35,-8 35,-23l0 -350c0,-15 -11,-23 -35,-23l-18 0 0 -19 182 0 0 19 -18 0c-24,0 -36,8 -36,23l0 350c0,8 3,14 9,17 6,4 15,6 27,6l18 0 0 19 -182 0 0 -19z"/>
   <path id="7" class="fil0" d="M6751 443l0 19 -10 0c-24,0 -38,8 -42,23l-116 394 -46 0 -96 -287 -103 287 -55 0 -119 -395c-2,-7 -7,-12 -14,-16 -7,-4 -15,-6 -23,-6l-12 0 0 -19 170 0 0 19 -12 0c-9,0 -16,2 -21,5 -5,4 -8,8 -8,14 0,2 1,4 1,5l80 313 96 -268 -16 -47c-2,-7 -7,-12 -14,-16 -7,-4 -15,-6 -22,-6l-12 0 0 -19 161 0 0 19 -12 0c-9,0 -16,2 -23,7 -6,4 -8,9 -6,16l94 314 81 -312c0,-1 1,-3 1,-5 0,-6 -3,-11 -9,-14 -5,-4 -11,-6 -18,-6l-15 0 0 -19 140 0z"/>
   <path id="8" class="fil0" d="M7122 763l-11 114 -345 0 0 -19 18 0c12,0 21,-2 27,-6 6,-3 9,-9 9,-17l0 -350c0,-15 -12,-23 -36,-23l-18 0 0 -19 345 0 0 111 -19 0c-4,-55 -23,-82 -58,-82l-140 0 0 163 103 0c13,0 21,-5 25,-14 4,-10 6,-25 8,-45l17 0 0 147 -17 0c-2,-20 -4,-35 -8,-45 -4,-9 -12,-14 -25,-14l-103 0 0 184 152 0c31,0 50,-28 57,-85l19 0z"/>
   <path id="9" class="fil0" d="M7746 858l0 19 -112 0 -189 -195 0 153c0,15 12,23 36,23l18 0 0 19 -182 0 0 -19 18 0c12,0 21,-2 27,-6 6,-3 9,-9 9,-17l0 -350c0,-15 -12,-23 -36,-23l-18 0 0 -19 182 0 0 19 -18 0c-24,0 -36,8 -36,23l0 151 174 -153c4,-3 5,-6 5,-9 0,-8 -8,-12 -23,-12l-10 0 0 -19 132 0 0 19 -14 0c-7,0 -14,2 -19,4 -5,3 -11,6 -16,11l-181 161 180 187c11,11 20,19 28,25 8,5 17,8 27,8l18 0z"/>
   <path id="10" class="fil0" d="M8219 858l0 19 -170 0 0 -19 12 0c9,0 17,-2 21,-5 4,-3 6,-7 6,-13 0,-5 -2,-13 -6,-25l-23 -64 -171 0 -28 76c-2,4 -2,7 -2,10 0,6 3,11 9,15 5,4 12,6 21,6l11 0 0 19 -140 0 0 -19 10 0c8,0 17,-2 25,-6 9,-5 14,-10 17,-17l147 -381 55 -21 157 403c3,7 8,12 15,16 7,4 15,6 22,6l12 0zm-171 -135l-74 -202 -75 202 149 0z"/>
   <path id="11" class="fil0" d="M8664 858l0 19 -113 0 -188 -195 0 153c0,15 12,23 35,23l19 0 0 19 -182 0 0 -19 18 0c12,0 21,-2 27,-6 6,-3 9,-9 9,-17l0 -350c0,-15 -12,-23 -36,-23l-18 0 0 -19 182 0 0 19 -19 0c-23,0 -35,8 -35,23l0 151 174 -153c3,-3 5,-6 5,-9 0,-8 -8,-12 -24,-12l-9 0 0 -19 131 0 0 19 -13 0c-8,0 -14,2 -19,4 -6,3 -11,6 -16,11l-181 161 180 187c11,11 20,19 28,25 8,5 17,8 27,8l18 0z"/>
   <path id="12" class="fil0" d="M9137 858l0 19 -170 0 0 -19 11 0c10,0 17,-2 22,-5 4,-3 6,-7 6,-13 0,-5 -2,-13 -6,-25l-24 -64 -170 0 -29 76c-1,4 -1,7 -1,10 0,6 2,11 8,15 6,4 13,6 21,6l12 0 0 19 -140 0 0 -19 9 0c9,0 18,-2 26,-6 9,-5 14,-10 16,-17l148 -381 55 -21 157 403c3,7 8,12 15,16 7,4 14,6 22,6l12 0zm-171 -135l-74 -202 -76 202 150 0z"/>
   <path id="13" class="fil0" d="M9348 883c-71,0 -125,-20 -162,-59 -37,-39 -55,-94 -55,-164 0,-70 18,-125 55,-164 37,-39 91,-59 162,-59 71,0 125,20 162,59 37,39 56,94 56,164 0,70 -19,125 -56,164 -37,39 -91,59 -162,59zm0 -30c46,0 82,-17 106,-51 24,-34 37,-82 37,-142 0,-60 -13,-108 -37,-142 -24,-35 -60,-52 -106,-52 -47,0 -82,17 -106,52 -24,34 -36,82 -36,142 0,60 12,108 36,142 24,34 59,51 106,51z"/>
   <path class="fil0" d="M5392 1470l0 13 -109 0 0 -13 7 0c6,0 12,-1 16,-3 3,-2 5,-6 5,-11l0 -113c0,-15 -3,-26 -10,-33 -7,-7 -17,-11 -31,-11 -9,0 -18,3 -26,7 -9,5 -16,13 -22,22 -5,10 -8,22 -8,37l0 91c0,5 2,9 6,11 4,2 9,3 15,3l8 0 0 13 -110 0 0 -13 9 0c7,0 13,-1 17,-3 4,-2 6,-6 6,-11l0 -135c0,-7 -4,-10 -10,-10 -3,0 -6,1 -12,3l-3 -11 62 -22 12 0 0 33c6,-10 16,-18 29,-25 13,-6 27,-10 43,-10 24,0 42,5 55,16 13,10 19,25 19,42l0 119c0,5 2,9 7,11 4,2 9,3 16,3l9 0z"/>
   <path id="1" class="fil0" d="M5470 1487c-18,0 -32,-4 -43,-12 -10,-8 -15,-19 -15,-33 0,-21 11,-38 32,-51 22,-13 56,-23 101,-29l0 -21c0,-14 -4,-25 -13,-32 -8,-7 -20,-10 -34,-10 -11,0 -20,2 -29,6 -9,4 -13,8 -13,13 0,2 0,4 1,7 0,3 1,5 1,6 0,4 -2,8 -5,12 -3,3 -7,5 -14,5 -5,0 -10,-2 -13,-6 -4,-4 -6,-10 -6,-17 0,-15 8,-26 25,-34 17,-8 38,-12 63,-12 28,0 49,6 64,18 15,12 23,29 23,50l0 109c0,9 3,14 10,14 4,0 9,-2 15,-4l0 9c-5,4 -11,7 -18,9 -8,2 -15,3 -23,3 -9,0 -17,-1 -23,-4 -7,-4 -10,-9 -10,-17l0 -10c-11,11 -23,20 -36,24 -14,5 -27,7 -40,7zm23 -19c10,0 19,-3 30,-9 10,-7 17,-14 22,-22l0 -60c-28,6 -49,15 -63,26 -15,11 -22,23 -22,36 0,9 3,16 9,21 6,5 14,8 24,8z"/>
   <path id="2" class="fil0" d="M5634 1566l9 0c7,0 13,-1 17,-3 4,-3 6,-6 6,-11l0 -231c0,-7 -3,-10 -10,-10 -3,0 -6,1 -12,3l-3 -11 62 -22 12 0 0 31c8,-12 18,-20 30,-25 12,-5 25,-8 39,-8 27,0 49,9 66,26 16,17 24,41 24,73 0,39 -8,67 -26,84 -17,17 -42,25 -75,25 -13,0 -25,-2 -36,-7 -10,-6 -18,-12 -22,-20l0 92c0,4 2,8 6,10 4,3 10,4 16,4l8 0 0 13 -111 0 0 -13zm134 -97c39,0 58,-30 58,-89 0,-27 -5,-48 -14,-61 -10,-14 -24,-21 -45,-21 -7,0 -15,3 -23,7 -9,5 -15,12 -21,20 -5,9 -8,18 -8,29l0 60c0,16 5,29 14,39 10,10 23,16 39,16z"/>
   <path id="3" class="fil0" d="M5965 1238l50 -49c8,-8 15,-11 22,-11 5,0 9,1 12,4 3,3 4,7 4,10 0,8 -5,15 -16,21l-63 37 -9 -12zm45 249c-36,0 -64,-9 -84,-27 -19,-18 -29,-43 -29,-77 0,-33 10,-59 29,-77 20,-18 48,-27 84,-27 35,0 63,9 83,27 19,18 29,44 29,77 0,34 -10,59 -29,77 -20,18 -48,27 -83,27zm0 -18c19,0 35,-8 46,-22 11,-15 17,-36 17,-64 0,-27 -6,-48 -17,-63 -11,-14 -27,-22 -46,-22 -20,0 -36,8 -47,22 -11,15 -17,36 -17,63 0,28 6,49 17,64 11,14 27,22 47,22z"/>
   <path id="4" class="fil0" d="M6207 1245c-8,0 -15,-2 -20,-7 -5,-5 -7,-12 -7,-19 0,-8 2,-15 7,-19 5,-5 12,-8 20,-8 8,0 15,3 20,8 5,4 8,11 8,19 0,7 -3,14 -8,19 -6,5 -12,7 -20,7zm-66 287c13,-5 23,-12 29,-20 6,-9 10,-18 12,-28 2,-11 3,-24 3,-41l0 -122c0,-7 -4,-10 -10,-10 -3,0 -6,1 -12,3l-3 -11 62 -22 12 0 0 159c0,30 -8,54 -22,70 -14,17 -37,28 -68,32l-3 -10z"/>
   <path id="5" class="fil0" d="M6521 1487c-18,0 -33,-2 -45,-8 -13,-6 -22,-14 -28,-24l-13 28 -23 0 0 -265c0,-7 -3,-10 -10,-10 -2,0 -6,1 -11,3l-3 -11 61 -22 12 0 0 133c7,-11 17,-19 29,-24 13,-5 25,-8 38,-8 28,0 51,9 67,26 17,18 25,43 25,75 0,38 -8,66 -25,82 -17,17 -42,25 -74,25zm-6 -18c38,0 57,-29 57,-87 0,-56 -20,-84 -59,-84 -8,0 -16,3 -24,7 -8,5 -15,11 -20,19 -5,9 -8,18 -8,29l0 57c0,10 2,19 6,28 5,9 11,17 19,22 8,6 18,9 29,9z"/>
   <path id="6" class="fil0" d="M6759 1487c-36,0 -64,-9 -83,-27 -20,-18 -30,-43 -30,-77 0,-33 10,-59 30,-77 19,-18 47,-27 83,-27 36,0 63,9 83,27 19,18 29,44 29,77 0,34 -10,59 -29,77 -20,18 -47,27 -83,27zm0 -18c20,0 35,-8 46,-22 12,-15 17,-36 17,-64 0,-27 -5,-48 -17,-63 -11,-14 -26,-22 -46,-22 -20,0 -35,8 -47,22 -11,15 -17,36 -17,63 0,28 6,49 17,64 12,14 27,22 47,22z"/>
   <path id="7" class="fil0" d="M7089 1279c9,0 16,2 21,6 6,3 8,8 8,14 0,5 -1,9 -4,12 -3,3 -7,4 -12,4 -3,0 -6,0 -7,-2 -2,-1 -4,-3 -5,-5 -2,-3 -4,-5 -6,-7 -2,-1 -5,-2 -9,-2 -4,0 -9,2 -15,5 11,11 16,25 16,43 0,21 -8,37 -24,49 -16,12 -38,17 -67,17 -17,0 -32,-2 -46,-6 -7,5 -11,11 -11,18 0,5 2,9 7,12 4,3 11,5 19,5l72 0c18,0 33,3 46,11 12,8 18,20 18,36 0,20 -10,35 -28,46 -19,11 -45,17 -79,17 -28,0 -50,-4 -66,-13 -16,-9 -24,-21 -24,-38 0,-16 11,-28 34,-36 -10,-3 -17,-7 -22,-12 -4,-6 -7,-12 -7,-19 0,-12 9,-24 25,-35 -18,-11 -28,-29 -28,-52 0,-22 8,-38 24,-50 16,-12 38,-18 66,-18 27,0 47,5 63,15 12,-10 26,-15 41,-15zm-104 117c15,0 25,-5 32,-14 7,-9 11,-21 11,-35 0,-15 -4,-27 -11,-36 -7,-9 -17,-14 -32,-14 -13,0 -24,5 -31,14 -7,9 -10,21 -10,36 0,14 3,26 10,35 7,9 18,14 31,14zm-34 77c-8,3 -14,7 -17,13 -4,5 -6,11 -6,16 0,11 5,19 16,24 10,6 24,9 41,9 19,0 34,-4 45,-10 11,-6 17,-15 17,-27 0,-9 -4,-15 -10,-19 -6,-4 -17,-6 -32,-6l-54 0z"/>
   <path id="8" class="fil0" d="M7186 1238l50 -49c7,-8 15,-11 21,-11 6,0 10,1 13,4 3,3 4,7 4,10 0,8 -5,15 -17,21l-62 37 -9 -12zm44 249c-36,0 -63,-9 -83,-27 -20,-18 -29,-43 -29,-77 0,-33 9,-59 29,-77 20,-18 47,-27 83,-27 36,0 64,9 83,27 20,18 29,44 29,77 0,34 -9,59 -29,77 -19,18 -47,27 -83,27zm0 -18c20,0 35,-8 47,-22 11,-15 17,-36 17,-64 0,-27 -6,-48 -17,-63 -12,-14 -27,-22 -47,-22 -20,0 -35,8 -46,22 -12,15 -17,36 -17,63 0,28 5,49 17,64 11,14 26,22 46,22z"/>
   <path id="9" class="fil0" d="M7679 1283l0 13 -5 0c-5,0 -10,1 -14,3 -5,2 -8,5 -9,10l-51 174 -38 0 -43 -158 -47 158 -39 0 -45 -163c-1,-2 -2,-5 -4,-10 -1,-5 -3,-8 -6,-11 -3,-2 -7,-3 -12,-3l-7 0 0 -13 93 0 0 13 -7 0c-12,0 -18,4 -18,11 0,1 1,2 1,3l34 132 46 -159 35 0 46 162 35 -133c1,-2 1,-4 1,-5 0,-4 -1,-7 -5,-8 -3,-2 -7,-3 -11,-3l-7 0 0 -13 77 0z"/>
   <line class="fil1 str0" x1="4994" y1="1379" x2="3250" y2= "1379" />
   <line class="fil1 str0" x1="9562" y1="1379" x2="7819" y2= "1379" />
  </g>
  <g id="_2419467618352">
   <g>
    <path class="fil2" d="M1221 1927c-2,-18 17,-38 23,-55 8,-19 16,-44 21,-62 11,-47 10,-123 15,-135l3 -6c5,-7 78,-5 88,-3 27,41 1,145 -6,193 -3,18 -1,33 -11,46 -5,8 -19,22 -30,25 -20,5 -87,5 -103,-3zm669 -403c-4,24 -5,25 -15,42 -38,59 -27,177 -71,215 -11,10 -22,14 -33,22 -10,8 -26,16 -38,22 -18,8 -28,18 -72,39 -37,17 -138,37 -182,48 -14,3 -35,5 -51,2 -40,-10 -15,-50 -7,-78 32,-108 13,-84 5,-141 -3,-25 1,-28 21,-36 15,-6 8,-5 16,-13 17,-15 7,11 80,-65 43,-45 55,-75 146,-80 45,-2 119,1 171,0 24,0 35,-4 30,23zm-893 159c50,0 91,0 141,-3 23,-2 57,-7 77,-3 21,41 -14,210 -53,233 -12,7 -89,5 -106,4 -46,-1 -114,-7 -150,-28 -57,-35 -85,-38 -121,-117 -22,-46 -29,-40 -29,-106 0,-34 -1,-43 9,-70 10,-26 43,-80 70,-89 44,-16 20,20 12,33 -26,40 -12,94 19,115 16,11 36,17 57,23 33,8 39,8 74,8zm1172 -54c-15,0 -24,-1 -29,-12 -18,-28 56,-30 41,-76 -22,-10 -22,-1 -43,11 -14,8 -27,18 -36,30 -38,56 24,122 130,109 18,-3 37,-6 54,-11 52,-14 84,-41 121,-76 59,-56 48,-189 59,-207 6,-10 28,-22 36,-28 13,-10 25,-18 43,-25 84,-33 79,118 75,177 -3,52 -29,104 -55,143 -12,18 -44,56 -62,70 -12,9 -28,16 -39,27 -22,22 -49,37 -82,50 -102,38 -277,63 -385,29 -16,-6 -31,-14 -44,-20 -53,-26 -64,-66 -53,-129 10,-56 30,-150 74,-181 18,-13 31,-7 56,-9 53,-4 119,-10 169,-23 12,-3 99,-24 103,-23 10,21 4,48 -6,64 -38,55 -78,48 -84,76 -5,30 11,34 -43,34zm119 -35c-1,-15 8,-13 29,-46 27,-43 23,-34 32,-85 2,-16 1,-19 14,-24 12,-5 49,-29 57,-8 15,35 -12,74 -20,92 -6,13 -6,16 -15,27 -16,18 -70,64 -97,44zm-1381 -454c2,18 3,74 43,46 38,-28 34,-31 73,-32 22,0 44,-1 53,17 -2,31 -64,36 -44,85 40,16 37,-32 80,-52 18,-9 35,8 43,18 12,16 13,28 15,55 2,25 3,39 -13,54 -45,48 -88,5 -148,-19 -17,-7 -33,-11 -50,-18 -38,-16 -100,-57 -130,-80 -10,-7 -24,-25 -29,-38 -32,-79 9,-55 50,-49 20,3 41,8 57,13zm850 286c-1,-22 21,-27 35,-40 13,-13 61,-66 68,-85 22,-54 16,-162 -9,-204 -24,-41 -71,-45 -114,-34 -36,9 -90,23 -110,43 -14,15 -22,21 -35,42 -24,39 -6,48 -25,53 -30,8 -118,5 -88,-55 33,-70 111,-108 187,-122 44,-8 86,-22 132,-23 43,-1 100,6 134,21 48,20 53,37 78,78 20,34 27,86 18,130 -6,30 -12,36 -18,59 -9,33 -34,74 -58,98 -8,7 -35,31 -45,35 -14,5 -128,7 -150,4zm953 -1104c8,4 10,11 13,21 2,9 4,17 6,26 10,48 23,136 18,182 -3,28 -7,31 -21,47 -10,11 -15,26 -27,40 -63,70 -46,79 -130,138 -43,30 -11,24 -102,66 -25,11 -47,24 -75,28 -20,2 -37,6 -52,15 -34,22 -34,77 52,47 19,-7 72,-36 90,-48 12,-7 18,-11 31,-17 15,-7 49,-26 59,-35l160 -167c9,-13 10,-18 29,-19 17,22 17,62 10,94 -11,58 -62,85 -107,117 -44,31 -82,64 -131,92 -25,14 -89,44 -117,51 -15,4 -28,8 -43,13 -33,11 -66,3 -81,31 1,29 28,34 56,32 36,-2 45,-5 74,-17 79,-33 110,-39 178,-93l121 -106c56,-54 49,79 -21,132 -28,21 -59,43 -91,60 -25,12 -55,41 -98,55 -15,5 -23,7 -37,13 -13,6 -25,6 -41,12 -44,18 -133,23 -129,75 12,25 90,13 113,6 81,-24 140,-72 207,-117 8,-5 15,-7 23,-13 11,-7 20,-21 28,-25 13,-7 6,-2 11,-1 0,0 2,0 2,1 14,4 -12,34 -16,42 -14,28 -31,55 -53,77 -14,13 -24,18 -38,29 -52,40 -135,102 -196,131 -48,22 -97,38 -152,45 -33,5 -217,34 -237,26 0,-22 47,-57 64,-120 30,-108 19,-207 -56,-291 -27,-30 -85,-57 -127,-62 -105,-11 -218,14 -309,59 -56,28 -118,85 -136,147 -33,118 158,142 188,96 9,-14 3,-25 5,-42 3,-26 32,-33 52,-42 21,-10 42,-20 71,-23 38,-3 53,-2 62,31 28,102 -35,200 -129,235 -65,24 -79,31 -160,22 -87,-9 -169,-16 -254,-29 -15,-2 -28,-3 -42,-5 -8,0 -12,-1 -20,-4 -28,-9 -8,-29 -2,-53 3,-15 8,-41 9,-56 0,-30 -19,-73 -33,-94 -6,-8 -25,-24 -32,-30 -10,-9 -26,-16 -39,-26 -46,-35 -153,-40 -211,-44 -21,-2 -35,-7 -53,-9 -71,-8 -42,-31 -17,-55l34 -31c11,-9 26,-18 32,-33 5,-11 3,-42 -2,-55 -8,-22 -11,-27 -4,-54 5,-15 11,-34 20,-44 29,-32 76,-50 112,-77 14,-10 22,-22 34,-31 12,-9 28,-17 26,-38 -4,-39 -50,-37 -33,-84 12,-31 25,-59 42,-87 15,-24 33,-53 52,-75 17,-19 48,-45 67,-62 64,-55 175,-94 254,-126 40,-16 108,-32 151,-44 28,-8 74,-18 104,-23 37,-5 79,-3 120,-6 82,-7 165,5 247,3 33,0 148,21 176,45 9,7 6,7 18,15 22,13 36,48 48,79 24,67 -5,146 -36,202 -9,17 -18,26 -26,39 -9,15 -16,28 -26,39 -9,8 -24,19 -26,35 -2,19 15,27 34,28 34,2 94,5 120,-9 39,-21 78,-119 90,-162 33,-113 -18,-215 22,-229 56,-19 49,23 48,68 -2,60 -15,163 -40,213 -5,10 -5,13 -9,24l-31 66c-11,21 -42,54 -65,62 -9,3 -13,6 -21,9 -20,7 -62,3 -68,28 -6,20 12,29 31,29 26,1 31,-10 48,-17 19,-9 66,-37 79,-51 56,-63 37,-48 75,-117 22,-41 31,-105 39,-151 16,-90 -25,-208 75,-161 39,18 27,51 22,93 -6,51 -21,109 -32,159 -12,52 -79,170 -116,202 -25,23 -76,76 -103,88 -30,13 -83,18 -89,38 -6,19 9,35 24,39 22,6 70,-26 88,-36 30,-19 130,-124 160,-158l26 -39c17,-26 28,-57 41,-89 12,-30 18,-66 26,-100 5,-21 8,-31 10,-54 2,-17 3,-42 15,-51zm-1410 1170c-34,31 -182,44 -238,37 -17,-2 -111,-24 -115,-23 -25,4 -27,47 43,69 71,23 175,12 253,0 64,-9 57,0 110,-62 8,-9 8,-9 22,-15 25,-9 34,-6 64,-5 33,1 115,-5 75,47 -19,24 -57,46 -86,56 -38,12 -157,-6 -261,14 -57,11 -203,26 -256,6 -16,-6 -31,-17 -35,-33 -6,-33 11,-31 22,-48 18,-27 1,-32 23,-48 14,-9 32,-20 23,-42 -17,-39 -151,-36 -209,23 -52,52 -69,116 -69,212 0,46 5,82 23,117l43 63c47,57 121,100 197,118 82,19 165,18 249,30 41,5 234,4 273,-3 77,-13 164,-19 232,-47 52,-23 106,-59 153,-92 24,-17 22,-30 56,11 18,22 48,39 74,50 16,6 27,14 43,19 60,19 163,6 228,-3 69,-10 133,-34 190,-57 28,-11 56,-27 81,-43 77,-48 135,-116 160,-214 14,-55 28,-170 15,-228 -9,-44 -16,-55 -34,-90 -23,-45 8,-51 27,-77 36,-47 76,-94 97,-154 46,-129 25,-75 50,-197 22,-111 20,-346 -11,-455 -20,-69 -31,-132 -57,-194 -13,-32 -29,-53 -54,-69 -37,-24 -48,-25 -100,-25 -49,0 -65,1 -109,15 -94,30 -83,74 -66,163 7,33 4,82 -1,113 -9,46 -30,95 -64,123 -10,8 -23,23 -45,19 -15,-44 52,-71 67,-195 8,-67 -19,-173 -50,-217 -16,-24 -50,-44 -76,-56 -24,-10 -78,-25 -105,-31 -15,-4 -46,-5 -63,-6 -20,0 -38,-5 -59,-6 -289,-16 -425,-7 -690,109 -35,16 -60,30 -87,49 -28,20 -54,34 -80,55 -32,25 -42,31 -73,62l-48 50c-6,8 -9,14 -14,21 -24,38 -80,157 -42,201 51,56 -22,51 -46,59 -68,23 -109,83 -115,152 -8,90 12,86 -21,109l-50 50c-5,6 -8,16 -12,24 -31,59 -25,183 0,227l63 73c17,15 114,64 131,69 22,6 32,11 51,17 34,11 60,25 102,33l161 42c26,8 40,0 40,28z"/>
    <path class="fil2" d="M531 1333c-11,-17 -26,-20 -49,-14 -18,5 -37,11 -56,17 -45,13 -64,20 -101,46 -33,23 -92,103 -111,143 -2,4 -3,8 -6,12l-11 12c-10,-25 -7,-36 -7,-66 0,-37 1,-36 17,-59 7,-9 5,-14 13,-23 11,-14 25,-27 34,-42 21,-34 65,-69 98,-91 19,-12 30,-17 59,-19 18,-1 43,-7 65,-10 68,-9 66,-56 5,-50 -37,3 -94,8 -125,23 -15,8 -29,21 -45,30 -20,12 -29,20 -42,35 -15,17 -53,79 -75,69 -5,-9 -6,-55 -1,-67 6,-15 26,-29 35,-40 23,-28 59,-41 82,-72 20,-27 62,-44 90,-60 24,-12 25,-14 56,-21 22,-4 49,-4 73,-4 26,0 34,-22 20,-40 -10,-14 -46,-9 -68,-9 -42,1 -90,10 -120,32 -17,13 -23,23 -40,34 -30,21 -60,42 -86,67 -11,11 -23,31 -44,30 -5,-17 4,-54 6,-72 5,-53 14,-71 60,-98 16,-10 30,-26 46,-37 10,-7 57,-58 96,-65l135 -28c21,-4 54,6 68,-12 18,-23 -9,-38 -32,-38 -31,0 -120,9 -147,16 -39,10 -82,28 -111,51 -19,17 -51,35 -66,55 -8,11 -8,16 -27,15 1,-29 12,-53 18,-81 13,-60 30,-49 71,-76 11,-7 12,-13 27,-22 42,-27 87,-47 133,-65 91,-35 92,-14 166,-31 23,-5 57,-20 60,-41 -10,-15 -24,-20 -49,-16 -104,12 -69,7 -173,31 -39,9 -111,35 -138,65 -9,10 -30,24 -45,25 5,-34 11,-63 25,-92 15,-30 40,-37 66,-52 13,-8 14,-6 29,-10 12,-3 6,-2 15,-6 7,-2 10,-2 16,-4 23,-5 27,-15 57,-20 22,-3 43,-13 64,-15 13,-2 143,-11 143,-11 6,-4 4,0 8,-9 6,-10 5,-26 -4,-32 -25,-16 -140,-5 -166,1 -17,4 -33,10 -49,13 -18,4 -33,6 -51,10 -50,14 -74,41 -87,25 -10,-13 6,-43 13,-55 15,-25 59,-57 86,-67 13,-5 44,-15 55,-21 58,-26 140,-22 205,-22 13,0 24,0 32,-6 8,-4 16,-10 21,-17 -3,-17 -20,-29 -41,-29 -45,0 -102,-3 -144,0 -16,1 -45,21 -58,7 -24,-26 85,-47 99,-49 27,-3 117,-11 133,-23 20,-15 18,-35 -3,-45 -38,-17 -90,8 -128,20 -56,18 -120,31 -159,77 -29,33 -83,72 -102,95 -7,7 -10,13 -18,21l-34 45c-28,50 -29,51 -50,109 -7,19 -12,38 -19,57 -13,40 -29,74 -41,115 -6,22 -15,34 -20,60 -10,43 -26,80 -34,121 -14,71 -22,144 -21,217 1,40 -4,99 -3,156 1,66 7,158 17,219 12,73 42,106 88,148 8,7 15,7 19,20 12,47 -55,8 -69,-3l-42 -37c-33,-33 -37,-52 -49,-107 -9,-47 -19,-92 -19,-140 1,-157 -3,-296 22,-450 7,-49 17,-85 28,-131 10,-45 19,-81 32,-123 7,-20 11,-43 17,-63 8,-29 22,-61 26,-92 7,-45 40,-99 61,-136 10,-17 23,-30 36,-44l41 -35c9,-7 15,-8 23,-15 21,-20 44,-36 68,-54l50 -29c33,-15 75,-36 114,-41 25,-4 43,-12 65,-15 24,-4 48,-5 72,-8 23,-3 52,2 76,-1 25,-2 39,-22 21,-42 -15,-19 -111,-15 -142,-15 -70,0 -133,17 -194,43 -20,8 -39,13 -58,22 -35,17 -63,43 -95,60 -29,15 -62,51 -84,75 -45,47 -66,83 -92,145 -36,90 -29,89 -54,180 -12,42 -23,81 -36,124l-29 127c-9,48 -14,89 -20,139 -14,110 -26,336 -8,449 8,53 16,78 33,124 7,18 16,38 25,53 7,10 27,38 34,45 68,62 124,90 222,92 55,1 159,11 201,-29 11,-10 29,-37 8,-49 -13,-7 -54,1 -71,3 -25,2 -119,7 -126,-24 -6,-34 30,-88 55,-103 15,-9 36,-16 54,-25 10,-4 103,-27 76,-69 -19,-31 -156,27 -184,72 -7,10 -10,16 -18,24 -16,15 -20,36 -31,48 -29,32 -70,-49 -55,-81 9,-18 18,-37 28,-52 22,-31 40,-66 68,-91 34,-29 54,-45 98,-58 36,-10 106,-11 105,-53z"/>
    <path class="fil2" d="M1754 608c-14,104 -22,137 -135,161 -50,10 -95,22 -149,26 -52,4 -178,6 -222,-11 -20,-7 -65,-28 -76,-41 -14,-17 -15,-84 9,-92 40,-14 258,18 304,-20 7,-6 9,-7 17,-12 14,-10 46,-47 57,-61 43,-57 -20,-119 65,-113 12,1 15,4 24,6 19,3 35,-2 67,22 35,26 44,103 39,135zm-216 -111c-5,17 -17,28 -24,40 -15,23 -33,7 -18,-15 10,-15 13,-28 22,-43 14,-23 28,-8 20,18zm-55 -14c-11,23 -25,41 -50,50 -26,9 -50,18 -80,21 -15,2 -95,14 -108,20 -10,5 -8,7 -13,13 -15,18 -29,-1 -19,-18l59 -41c25,-15 43,-21 71,-33 26,-11 49,-16 79,-24 20,-4 80,-29 61,12zm-136 376l3 0c86,0 176,4 261,-17 44,-10 67,-22 96,-45 12,-10 28,-22 36,-34 10,-14 16,-32 31,-40 20,0 20,16 56,14 70,-2 113,-4 169,-42 21,-15 55,-47 66,-75 25,-65 38,-181 27,-252 -9,-56 -6,-70 -36,-109 -72,-93 -136,-89 -241,-89 -17,0 -75,-6 -84,4 -20,20 21,37 39,41 52,9 88,-8 166,13 42,12 80,42 99,82 38,77 -3,222 -33,297 -20,50 -56,53 -113,67 -17,4 -64,9 -80,2 -23,-9 -12,-37 -10,-70 3,-56 -9,-176 -61,-205 -19,-11 -40,-20 -66,-23 -116,-14 -332,40 -426,109 -15,11 -34,28 -49,39 -31,25 -56,71 -67,113 -6,24 -9,57 -6,83 6,52 13,74 77,103 50,23 82,33 146,34z"/>
    <path class="fil2" d="M1345 2c-44,10 -60,15 -72,58 -5,17 8,34 19,41 23,13 30,5 53,1 50,-9 8,6 46,-17 12,-8 29,-16 29,-36 -2,-35 -36,-56 -75,-47z"/>
    <path class="fil2" d="M1045 61c-18,8 -23,9 -35,25 -40,55 -14,84 60,77 48,-4 72,-68 19,-95 -4,-2 -16,-5 -21,-7 -14,-5 -11,-5 -23,0z"/>
    <path class="fil2" d="M1009 858c24,0 42,-11 41,-37 -1,-21 -24,-38 -46,-34 -47,7 -65,71 5,71z"/>
   </g>
   <g>
    <path class="fil0" d="M2999 213l-25 -42c-1,0 -3,0 -5,0l-33 0 0 42 -27 0 0 -144 60 0c18,0 33,5 43,13 10,9 15,21 15,37 0,11 -3,21 -7,29 -5,8 -12,14 -22,18l32 47 -31 0zm-63 -66l33 0c10,0 18,-3 23,-7 6,-5 9,-11 9,-20 0,-9 -3,-16 -9,-20 -5,-4 -13,-6 -23,-6l-33 0 0 53z"/>
    <path class="fil2" d="M2969 0c78,0 142,63 142,141 0,78 -64,142 -142,142 -78,0 -141,-64 -141,-142 0,-78 63,-141 141,-141zm0 26c64,0 115,52 115,115 0,64 -51,116 -115,116 -63,0 -115,-52 -115,-116 0,-63 52,-115 115,-115z"/>
   </g>
  </g>
 </g>
</svg>
